<svg version="1.1" xmlns="http://www.w3.org/2000/svg" xmlns:xlink="http://www.w3.org/1999/xlink" width="217.37499" height="76.56354" viewBox="0,0,217.37499,76.56354"><defs><radialGradient cx="165.29141" cy="177.31199" r="33.17092" gradientUnits="userSpaceOnUse" id="color-1"><stop offset="0" stop-color="#979797"/><stop offset="1" stop-color="#666666"/></radialGradient><linearGradient x1="164.29735" y1="162.83554" x2="164.29735" y2="201.16366" gradientUnits="userSpaceOnUse" id="color-2"><stop offset="0" stop-color="#fff800"/><stop offset="1" stop-color="#fff4b1"/></linearGradient></defs><g transform="translate(-129.85001,-145.2685)"><g data-paper-data="{&quot;isPaintingLayer&quot;:true}" fill-rule="nonzero" stroke-linecap="butt" stroke-linejoin="miter" stroke-miterlimit="10" stroke-dasharray="" stroke-dashoffset="0" style="mix-blend-mode: normal"><path d="M180.38901,210.78069v-60.78999c0,0 141.00958,0 154.93874,0c7.20669,0 11.89725,3.166 11.89725,12.02469c0,14.00683 0,21.88394 0,35.89077c0,8.86989 -3.60415,12.87453 -12.21771,12.87453c-14.30436,0 -154.61828,0 -154.61828,0z" data-paper-data="{&quot;origPos&quot;:null}" fill="#000000" stroke="none" stroke-width="0"/><path d="M197.15673,180.18942c0,18.31979 -14.67538,33.17092 -32.77836,33.17092c-18.10299,0 -32.77836,-14.85113 -32.77836,-33.17092c0,-18.31979 14.67538,-33.17092 32.77836,-33.17092c18.10299,0 32.77836,14.85113 32.77836,33.17092z" data-paper-data="{&quot;origPos&quot;:null}" fill="url(#color-1)" stroke="#000000" stroke-width="3.5"/><text transform="translate(199.90724,168.40245) scale(0.38016,0.38016)" font-size="40" xml:space="preserve" data-paper-data="{&quot;origPos&quot;:null}" fill="#ffffff" fill-rule="nonzero" stroke="none" stroke-width="1" stroke-linecap="butt" stroke-linejoin="miter" stroke-miterlimit="10" stroke-dasharray="" stroke-dashoffset="0" font-family="Sans Serif" font-weight="normal" text-anchor="start" style="mix-blend-mode: normal"><tspan x="0" dy="0">Golden Robux!</tspan></text><text transform="translate(201.82997,181.38392) scale(0.24646,0.24646)" font-size="40" xml:space="preserve" data-paper-data="{&quot;origPos&quot;:null}" fill="#ffffff" fill-rule="nonzero" stroke="none" stroke-width="1" stroke-linecap="butt" stroke-linejoin="miter" stroke-miterlimit="10" stroke-dasharray="" stroke-dashoffset="0" font-family="Sans Serif" font-weight="normal" text-anchor="start" style="mix-blend-mode: normal"><tspan x="0" dy="0">Catch 1 golden Seed</tspan></text><g data-paper-data="{&quot;origPos&quot;:null}"><path d="M198.01164,197.27545c37.96911,0 89.7537,0 97.68987,0c4.24032,0 6.37975,0.76819 6.37975,5.58228c0,1.37926 -0.17224,10.75061 -0.14088,12.1295c0.05113,2.24869 -1.07557,4.66689 -4.31946,4.76653c-6.86018,0.2107 -61.67399,1.68787 -100.60609,1.24637c-2.152,-0.02441 -4.38607,-2.73462 -4.18671,-5.78165c0.10667,-1.63043 0,-7.83833 0,-11.96202c0,-3.9291 1.16692,-5.98101 5.18354,-5.98101z" data-paper-data="{&quot;origPos&quot;:null,&quot;index&quot;:null}" fill="#000000" stroke="#ffffff" stroke-width="1.5"/><text transform="translate(197.21417,213.82292) scale(0.39874,0.39874)" font-size="40" xml:space="preserve" data-paper-data="{&quot;origPos&quot;:null}" fill="#ffffff" fill-rule="nonzero" stroke="none" stroke-width="3" stroke-linecap="butt" stroke-linejoin="miter" stroke-miterlimit="10" stroke-dasharray="" stroke-dashoffset="0" font-family="Sans Serif" font-weight="normal" text-anchor="start" style="mix-blend-mode: normal"><tspan x="0" dy="0">Achievement</tspan></text></g><path d="M160.17946,162.1467c2.43489,-1.4094 5.43752,-1.4094 7.87241,0l10.2947,5.9346c2.43419,1.40538 3.9344,4.00195 3.93622,6.81268v11.92973c-0.00949,2.80074 -1.50911,5.38474 -3.93622,6.78239l-10.2947,5.98001c-2.43489,1.4094 -5.43752,1.4094 -7.87241,0l-10.2947,-5.94973c-2.43645,-1.40308 -3.93751,-4.00107 -3.93619,-6.81268v-11.92973c0.00179,-2.81072 1.50201,-5.4073 3.93619,-6.81268zM161.55714,164.8415l-10.0222,5.79835c-1.58677,0.90522 -2.56409,2.59388 -2.55854,4.42067v11.58154c-0.00241,1.82597 0.97409,3.5131 2.55854,4.42067l10.0222,5.79835c1.58489,0.90786 3.53219,0.90786 5.11709,0l10.0222,-5.79835c1.58445,-0.90757 2.56092,-2.5947 2.55854,-4.42067v-11.58154c0.00555,-1.82679 -0.97177,-3.51545 -2.55854,-4.42067l-10.0222,-5.79835c-1.58489,-0.90786 -3.53219,-0.90786 -5.11709,0zM162.01134,168.09643c1.30049,-0.75813 2.9082,-0.75813 4.2087,0l7.90272,4.54179c1.28478,0.74159 2.08423,2.10476 2.10435,3.58803v9.18953c-0.03525,1.46324 -0.83349,2.80135 -2.10435,3.52746l-7.90272,4.54179c-1.30049,0.75813 -2.9082,0.75813 -4.2087,0l-7.9027,-4.54179c-1.30325,-0.74517 -2.10655,-2.13222 -2.10438,-3.63344v-9.08356c0.01483,-1.4887 0.81502,-2.85883 2.10438,-3.60315l7.9027,-4.54179zM168.65748,176.30194h-9.08356v9.08356h9.08356z" fill="url(#color-2)" stroke="none" stroke-width="1"/></g></g></svg>