<svg version="1.1" xmlns="http://www.w3.org/2000/svg" xmlns:xlink="http://www.w3.org/1999/xlink" width="195.39471" height="76.98551" viewBox="0,0,195.39471,76.98551"><defs><linearGradient x1="183.02226" y1="194.12909" x2="183.02226" y2="204.37909" gradientUnits="userSpaceOnUse" id="color-1"><stop offset="0" stop-color="#ff0000"/><stop offset="1" stop-color="#ffde00"/></linearGradient><linearGradient x1="182.35294" y1="172.13467" x2="182.35294" y2="182.79435" gradientUnits="userSpaceOnUse" id="color-2"><stop offset="0" stop-color="#eedfa2"/><stop offset="0.59" stop-color="#a9935a"/><stop offset="1" stop-color="#fee3a5"/></linearGradient></defs><g transform="translate(-151.83031,-148.76324)"><g data-paper-data="{&quot;isPaintingLayer&quot;:true}" fill-rule="nonzero" stroke-linejoin="miter" stroke-miterlimit="10" stroke-dasharray="" stroke-dashoffset="0" style="mix-blend-mode: normal"><path d="M180.38903,210.78074v-60.78999c0,0 141.00958,0 154.93874,0c7.20669,0 11.89725,3.166 11.89725,12.02469c0,14.00683 0,21.88394 0,35.89077c0,8.86989 -3.60415,12.87453 -12.21771,12.87453c-14.30436,0 -154.61828,0 -154.61828,0z" data-paper-data="{&quot;origPos&quot;:null}" fill="#000000" stroke="none" stroke-width="0" stroke-linecap="butt"/><path d="M210.15675,180.51482c0,15.9023 -12.66508,28.79367 -28.28822,28.79367c-15.62316,0 -28.28822,-12.89137 -28.28822,-28.79367c0,-15.9023 12.66508,-28.79367 28.28822,-28.79367c15.62316,0 28.28822,12.89137 28.28822,28.79367z" data-paper-data="{&quot;origPos&quot;:null}" fill="#88f7ff" stroke="none" stroke-width="0" stroke-linecap="butt"/><text transform="translate(212.00002,169.47055) scale(0.47603,0.47603)" font-size="40" xml:space="preserve" data-paper-data="{&quot;origPos&quot;:null}" fill="#ffffff" fill-rule="nonzero" stroke="none" stroke-width="1" stroke-linecap="butt" stroke-linejoin="miter" stroke-miterlimit="10" stroke-dasharray="" stroke-dashoffset="0" font-family="Sans Serif" font-weight="normal" text-anchor="start" style="mix-blend-mode: normal"><tspan x="0" dy="0">Seed Rocket</tspan></text><text transform="translate(213.50002,182.8154) scale(0.22983,0.22983)" font-size="40" xml:space="preserve" data-paper-data="{&quot;origPos&quot;:null}" fill="#ffffff" fill-rule="nonzero" stroke="none" stroke-width="1" stroke-linecap="butt" stroke-linejoin="miter" stroke-miterlimit="10" stroke-dasharray="" stroke-dashoffset="0" font-family="Sans Serif" font-weight="normal" text-anchor="start" style="mix-blend-mode: normal"><tspan x="0" dy="0">Increases Seeds per second</tspan><tspan x="0" dy="46.150000000000006px">by 100 million Seeds.</tspan></text><path d="M208.01166,201.19216c37.96911,0 89.7537,0 97.68987,0c4.24032,0 6.37975,0.76819 6.37975,5.58228c0,1.37926 -0.17224,10.75061 -0.14088,12.1295c0.05113,2.24869 -1.07557,4.66689 -4.31946,4.76653c-6.86018,0.2107 -61.67399,1.68787 -100.60609,1.24637c-2.152,-0.02441 -4.38607,-2.73462 -4.18671,-5.78165c0.10667,-1.63043 0,-7.83833 0,-11.96202c0,-3.9291 1.16692,-5.98101 5.18354,-5.98101z" data-paper-data="{&quot;origPos&quot;:null,&quot;index&quot;:null}" fill="#000000" stroke="#ffffff" stroke-width="1.5" stroke-linecap="butt"/><text transform="translate(221.04752,217.44796) scale(0.34666,0.34666)" font-size="40" xml:space="preserve" data-paper-data="{&quot;origPos&quot;:null}" fill="#ffffff" fill-rule="nonzero" stroke="none" stroke-width="3" stroke-linecap="butt" stroke-linejoin="miter" stroke-miterlimit="10" stroke-dasharray="" stroke-dashoffset="0" font-family="Sans Serif" font-weight="normal" text-anchor="start" style="mix-blend-mode: normal"><tspan x="0" dy="0">Buy for 5B</tspan></text><path d="M210.15675,180.51482c0,15.9023 -12.66508,28.79367 -28.28822,28.79367c-15.62316,0 -28.28822,-12.89137 -28.28822,-28.79367c0,-15.9023 12.66508,-28.79367 28.28822,-28.79367c15.62316,0 28.28822,12.89137 28.28822,28.79367z" data-paper-data="{&quot;origPos&quot;:null}" fill="none" stroke="#000000" stroke-width="3.5" stroke-linecap="butt"/><g><path d="M187.94361,194.12909l3.32865,5.62745l-2.96629,-0.80392l-2.03933,4.62255l-2.96629,-4.01961l-2.7809,4.82353l-1.85393,-5.62745l-3.89326,2.41176l0.48315,-6.58333" data-paper-data="{&quot;origPos&quot;:null}" fill="url(#color-1)" stroke="#d23b00" stroke-width="1.5" stroke-linecap="round"/><g data-paper-data="{&quot;origPos&quot;:null}" stroke-width="2.5" stroke-linecap="butt"><path d="M177.59812,186.6045v-21.2418h9.77896v21.2418z" data-paper-data="{&quot;origPos&quot;:null}" fill="#b2b2b2" stroke="#989898"/><path d="M174.9904,167.1086l7.82317,-8.72951l7.17124,8.72951z" data-paper-data="{&quot;origPos&quot;:null}" fill="#cacaca" stroke="#b1b1b1"/><path d="M175.31637,193.87909l2.28176,-7.56557h9.77896l2.60772,7.56557z" data-paper-data="{&quot;origPos&quot;:null}" fill="#5a5a5a" stroke="#454545"/></g></g><path d="M181.20769,171.9431c0.67718,-0.39198 1.51226,-0.39198 2.18945,0l2.86312,1.65051c0.67699,0.39086 1.09422,1.11301 1.09473,1.89472v3.31785c-0.00264,0.77893 -0.41971,1.49759 -1.09473,1.88629l-2.86312,1.66314c-0.67718,0.39198 -1.51226,0.39198 -2.18945,0l-2.86312,-1.65472c-0.67762,-0.39022 -1.09509,-1.11276 -1.09472,-1.89472v-3.31785c0.0005,-0.78171 0.41773,-1.50386 1.09472,-1.89472zM181.59085,172.69256l-2.78734,1.61262c-0.44131,0.25175 -0.71312,0.7214 -0.71157,1.22946v3.22101c-0.00067,0.50783 0.27091,0.97705 0.71157,1.22946l2.78734,1.61262c0.44079,0.25249 0.98236,0.25249 1.42315,0l2.78734,-1.61262c0.44066,-0.25241 0.71223,-0.72163 0.71157,-1.22946v-3.22101c0.00154,-0.50806 -0.27027,-0.9777 -0.71157,-1.22946l-2.78734,-1.61262c-0.44079,-0.25249 -0.98236,-0.25249 -1.42315,0zM181.71716,173.59781c0.36169,-0.21085 0.80882,-0.21085 1.17051,0l2.19788,1.26315c0.35732,0.20625 0.57966,0.58537 0.58525,0.99789v2.55576c-0.0098,0.40695 -0.23181,0.7791 -0.58525,0.98104l-2.19788,1.26315c-0.36169,0.21085 -0.80882,0.21085 -1.17051,0l-2.19787,-1.26315c-0.36246,-0.20724 -0.58587,-0.593 -0.58526,-1.01052v-2.52629c0.00412,-0.41403 0.22667,-0.79509 0.58526,-1.0021l2.19787,-1.26315zM183.56556,175.8799h-2.52629v2.52629h2.52629z" fill="url(#color-2)" stroke="none" stroke-width="1" stroke-linecap="butt"/></g></g></svg>