<svg version="1.1" xmlns="http://www.w3.org/2000/svg" xmlns:xlink="http://www.w3.org/1999/xlink" width="217.37499" height="132.13854" viewBox="0,0,217.37499,132.13854"><defs><radialGradient cx="162.5961" cy="178.65965" r="33.17092" gradientUnits="userSpaceOnUse" id="color-1"><stop offset="0" stop-color="#979797"/><stop offset="1" stop-color="#666666"/></radialGradient></defs><g transform="translate(-129.85001,-89.69351)"><g data-paper-data="{&quot;isPaintingLayer&quot;:true}" fill-rule="nonzero" stroke-linejoin="miter" stroke-miterlimit="10" stroke-dasharray="" stroke-dashoffset="0" style="mix-blend-mode: normal"><path d="M180.38901,210.78069v-60.78999c0,0 141.00958,0 154.93874,0c7.20669,0 11.89725,3.166 11.89725,12.02469c0,14.00683 0,21.88394 0,35.89077c0,8.86989 -3.60415,12.87453 -12.21771,12.87453c-14.30436,0 -154.61828,0 -154.61828,0z" data-paper-data="{&quot;origPos&quot;:null}" fill="#000000" stroke="none" stroke-width="0" stroke-linecap="butt"/><text transform="translate(199.90724,168.06035) scale(0.40867,0.40867)" font-size="40" xml:space="preserve" data-paper-data="{&quot;origPos&quot;:null}" fill="#ffffff" fill-rule="nonzero" stroke="none" stroke-width="1" stroke-linecap="butt" stroke-linejoin="miter" stroke-miterlimit="10" stroke-dasharray="" stroke-dashoffset="0" font-family="Sans Serif" font-weight="normal" text-anchor="start" style="mix-blend-mode: normal"><tspan x="0" dy="0">Pro Player</tspan></text><text transform="translate(201.82997,181.38392) scale(0.24646,0.24646)" font-size="40" xml:space="preserve" data-paper-data="{&quot;origPos&quot;:null}" fill="#ffffff" fill-rule="nonzero" stroke="none" stroke-width="1" stroke-linecap="butt" stroke-linejoin="miter" stroke-miterlimit="10" stroke-dasharray="" stroke-dashoffset="0" font-family="Sans Serif" font-weight="normal" text-anchor="start" style="mix-blend-mode: normal"><tspan x="0" dy="0">Become a roblox player</tspan></text><g data-paper-data="{&quot;origPos&quot;:null}" stroke-linecap="butt"><path d="M198.01164,197.27545c37.96911,0 89.7537,0 97.68987,0c4.24032,0 6.37975,0.76819 6.37975,5.58228c0,1.37926 -0.17224,10.75061 -0.14088,12.1295c0.05113,2.24869 -1.07557,4.66689 -4.31946,4.76653c-6.86018,0.2107 -61.67399,1.68787 -100.60609,1.24637c-2.152,-0.02441 -4.38607,-2.73462 -4.18671,-5.78165c0.10667,-1.63043 0,-7.83833 0,-11.96202c0,-3.9291 1.16692,-5.98101 5.18354,-5.98101z" data-paper-data="{&quot;origPos&quot;:null,&quot;index&quot;:null}" fill="#000000" stroke="#ffffff" stroke-width="1.5"/><text transform="translate(197.21417,213.82292) scale(0.39874,0.39874)" font-size="40" xml:space="preserve" data-paper-data="{&quot;origPos&quot;:null}" fill="#ffffff" fill-rule="nonzero" stroke="none" stroke-width="3" stroke-linecap="butt" stroke-linejoin="miter" stroke-miterlimit="10" stroke-dasharray="" stroke-dashoffset="0" font-family="Sans Serif" font-weight="normal" text-anchor="start" style="mix-blend-mode: normal"><tspan x="0" dy="0">Achievement</tspan></text></g><text transform="translate(165.96525,111.27684) scale(0.5,0.5)" font-size="40" xml:space="preserve" fill="none" fill-rule="nonzero" stroke="none" stroke-width="1" stroke-linecap="butt" stroke-linejoin="miter" stroke-miterlimit="10" stroke-dasharray="" stroke-dashoffset="0" font-family="Sans Serif" font-weight="normal" text-anchor="start" style="mix-blend-mode: normal"><tspan x="0" dy="0">£1</tspan></text><path d="M196.20416,179.918c0,17.78246 -14.1625,32.19801 -31.63279,32.19801c-17.47032,0 -31.63279,-14.41555 -31.63279,-32.19801c0,-17.78246 14.1625,-32.198 31.63279,-32.198c17.47032,0 31.63279,14.41555 31.63279,32.198z" fill="#88f7ff" stroke="none" stroke-width="0" stroke-linecap="butt"/><path d="M197.15673,180.18942c0,18.31979 -14.67538,33.17092 -32.77836,33.17092c-18.10299,0 -32.77836,-14.85113 -32.77836,-33.17092c0,-18.31979 14.67538,-33.17092 32.77836,-33.17092c18.10299,0 32.77836,14.85113 32.77836,33.17092z" data-paper-data="{&quot;origPos&quot;:null}" fill="url(#color-1)" stroke="#000000" stroke-width="3.5" stroke-linecap="butt"/><g stroke="#000000" stroke-width="1.5"><path d="M151.98197,187.10658v-22.78437h22.78437v22.78437z" fill="#ffec00" stroke-linecap="butt"/><path d="M151.84621,209.21106c0,-4.26612 0,-22.08181 0,-22.08181h22.83297v25.75842c0,0 -8.57139,0 -12.54601,0c-3.59903,0 -10.28696,-1.93585 -10.28696,-3.67661z" fill="#009bff" stroke-linecap="butt"/><path d="M167.97537,181.0024c0,0 -0.93022,1.79122 -4.4674,1.7845c-2.60002,-0.00494 -3.75919,-1.86845 -3.75919,-1.86845" fill="none" stroke-linecap="round"/><path d="M174.96473,211.79891l-0.17146,-24.65862l11.16442,-0.0802c0,0 0.07543,11.50292 0.10658,16.25137c0.0243,3.70499 -11.09954,8.48745 -11.09954,8.48745z" fill="#ffec00" stroke-linecap="butt"/><path d="M140.43674,199.87547c-0.0357,-5.44353 -0.08351,-12.73519 -0.08351,-12.73519l11.16442,-0.0802c0,0 0.12883,19.6451 0.15447,23.55542c0.0085,1.29656 -11.22561,-9.25016 -11.23538,-10.74004z" fill="#ffec00" stroke-linecap="butt"/></g><g stroke-width="1.25"><path d="M153.6954,170.11078h21.03813c0,0 -0.39943,5.71207 -5.61041,5.839c-4.16946,0.10157 -5.0489,-5.97925 -5.0489,-5.97925c0,0 -1.16468,6.45313 -5.60474,6.15215c-5.05096,-0.34238 -4.77407,-6.0119 -4.77407,-6.0119z" fill="#404040" stroke="none" stroke-linecap="butt"/><path d="M158.95493,175.72095l-3.0856,-5.11929" fill="none" stroke="#ffffff" stroke-linecap="round"/><path d="M166.38841,170.46142l3.08559,5.11929" fill="none" stroke="#ffffff" stroke-linecap="round"/><path d="M161.40938,174.17816l-2.17393,-3.64662" fill="none" stroke="#ffffff" stroke-linecap="round"/><path d="M170.03501,170.6718l2.17394,3.64661" fill="none" stroke="#ffffff" stroke-linecap="round"/><path d="M152.86634,170.06257h21.59675c0,0 0.09858,5.82609 -4.73206,6.08319c-4.56758,0.24309 -5.98747,-5.61025 -5.98747,-5.61025c0,0 0.58578,5.83361 -5.83404,5.54819c-4.90685,-0.21814 -5.04315,-6.02113 -5.04315,-6.02113z" fill="none" stroke="#000000" stroke-linecap="butt"/></g><path d="M197.15673,180.18942c0,18.31979 -14.67538,33.17092 -32.77836,33.17092c-18.10299,0 -32.77836,-14.85113 -32.77836,-33.17092c0,-18.31979 14.67538,-33.17092 32.77836,-33.17092c18.10299,0 32.77836,14.85113 32.77836,33.17092z" data-paper-data="{&quot;origPos&quot;:null}" fill="none" stroke="#000000" stroke-width="3.5" stroke-linecap="butt"/></g></g></svg>