<svg version="1.1" xmlns="http://www.w3.org/2000/svg" xmlns:xlink="http://www.w3.org/1999/xlink" width="195.39471" height="77.16537" viewBox="0,0,195.39471,77.16537"><g transform="translate(-151.83031,-148.58336)"><g data-paper-data="{&quot;isPaintingLayer&quot;:true}" fill-rule="nonzero" stroke-linecap="butt" stroke-linejoin="miter" stroke-miterlimit="10" stroke-dasharray="" stroke-dashoffset="0" style="mix-blend-mode: normal"><path d="M180.38903,210.78072v-60.78999c0,0 141.00958,0 154.93874,0c7.20669,0 11.89725,3.166 11.89725,12.02469c0,14.00683 0,21.88394 0,35.89077c0,8.86989 -3.60415,12.87453 -12.21771,12.87453c-14.30436,0 -154.61828,0 -154.61828,0z" data-paper-data="{&quot;origPos&quot;:null}" fill="#000000" stroke="none" stroke-width="0"/><path d="M210.15675,180.5148c0,15.9023 -12.66508,28.79367 -28.28822,28.79367c-15.62316,0 -28.28822,-12.89137 -28.28822,-28.79367c0,-15.9023 12.66508,-28.79367 28.28822,-28.79367c15.62316,0 28.28822,12.89137 28.28822,28.79367z" data-paper-data="{&quot;origPos&quot;:null}" fill="#d1d1d1" stroke="none" stroke-width="0"/><text transform="translate(212.00002,170.33336) scale(0.5,0.5)" font-size="40" xml:space="preserve" data-paper-data="{&quot;origPos&quot;:null}" fill="#ffffff" fill-rule="nonzero" stroke="none" stroke-width="1" stroke-linecap="butt" stroke-linejoin="miter" stroke-miterlimit="10" stroke-dasharray="" stroke-dashoffset="0" font-family="Sans Serif" font-weight="normal" text-anchor="start" style="mix-blend-mode: normal"><tspan x="0" dy="0">Auto Seed</tspan></text><text transform="translate(213.50002,182.81538) scale(0.22983,0.22983)" font-size="40" xml:space="preserve" data-paper-data="{&quot;origPos&quot;:null}" fill="#ffffff" fill-rule="nonzero" stroke="none" stroke-width="1" stroke-linecap="butt" stroke-linejoin="miter" stroke-miterlimit="10" stroke-dasharray="" stroke-dashoffset="0" font-family="Sans Serif" font-weight="normal" text-anchor="start" style="mix-blend-mode: normal"><tspan x="0" dy="0">Increases Seed per second</tspan><tspan x="0" dy="46.150000000000006px">by 1 Seed.</tspan></text><path d="M210.15675,180.5148c0,15.9023 -12.66508,28.79367 -28.28822,28.79367c-15.62316,0 -28.28822,-12.89137 -28.28822,-28.79367c0,-15.9023 12.66508,-28.79367 28.28822,-28.79367c15.62316,0 28.28822,12.89137 28.28822,28.79367z" data-paper-data="{&quot;origPos&quot;:null}" fill="none" stroke="#000000" stroke-width="3.5"/><path d="M208.01166,201.19214c37.96911,0 89.7537,0 97.68987,0c4.24032,0 6.37975,0.76819 6.37975,5.58228c0,1.37926 -0.17224,10.75061 -0.14088,12.1295c0.05113,2.24869 -1.07557,4.66689 -4.31946,4.76653c-6.86018,0.2107 -61.67399,1.68787 -100.60609,1.24637c-2.152,-0.02441 -4.38607,-2.73462 -4.18671,-5.78165c0.10667,-1.63043 0,-7.83833 0,-11.96202c0,-3.9291 1.16692,-5.98101 5.18354,-5.98101z" data-paper-data="{&quot;origPos&quot;:null,&quot;index&quot;:null}" fill="#000000" stroke="#ffffff" stroke-width="1.5"/><text transform="translate(219.54752,217.44794) scale(0.34666,0.34666)" font-size="40" xml:space="preserve" data-paper-data="{&quot;origPos&quot;:null}" fill="#ffffff" fill-rule="nonzero" stroke="none" stroke-width="3" stroke-linecap="butt" stroke-linejoin="miter" stroke-miterlimit="10" stroke-dasharray="" stroke-dashoffset="0" font-family="Sans Serif" font-weight="normal" text-anchor="start" style="mix-blend-mode: normal"><tspan x="0" dy="0">Buy for 100</tspan></text><path d="M164.81945,194.33333v-27.6903h14.67585v27.6903z" fill="#4a6aff" stroke="none" stroke-width="0"/><path d="M171.77664,193.77952v-26.58268h7.68406v26.58268z" fill="#3c57d0" stroke="none" stroke-width="0"/><path d="M166.88084,187.96456v-12.18372h5.41499v12.18372z" fill="#4a6aff" stroke="#2e43a0" stroke-width="0.5"/><path d="M175.46483,188.24147v-12.18374h3.75357v12.18374z" fill="#4a6aff" stroke="#2e43a0" stroke-width="0.5"/><path d="M174.04954,193.22572v-27.6903h14.67585v27.6903z" fill="#ffa566" stroke="none" stroke-width="0"/><path d="M181.00673,192.67192v-26.58268h7.68406v26.58268z" fill="#ec9a5f" stroke="none" stroke-width="0"/><path d="M176.11093,186.85695v-12.18372h5.41499v12.18372z" fill="#ffa566" stroke="#794f31" stroke-width="0.5"/><path d="M184.69492,187.13386v-12.18374h3.75357v12.18374z" fill="#ffa566" stroke="#794f31" stroke-width="0.5"/><path d="M185.31025,194.33333v-27.6903h14.67585v27.6903z" fill="#ff4949" stroke="none" stroke-width="0"/><path d="M192.26744,193.77952v-26.58268h7.68406v26.58268z" fill="#e24242" stroke="none" stroke-width="0"/><path d="M187.37164,187.96456v-12.18372h5.41499v12.18372z" fill="#ff4949" stroke="#c43939" stroke-width="0.5"/><path d="M195.95564,188.24147v-12.18374h3.75357v12.18374z" fill="#ff4949" stroke="#ba3636" stroke-width="0.5"/></g></g></svg>