<svg version="1.1" xmlns="http://www.w3.org/2000/svg" xmlns:xlink="http://www.w3.org/1999/xlink" width="35" height="35" viewBox="0,0,35,35"><g transform="translate(-223.16666,-163.16666)"><g data-paper-data="{&quot;isPaintingLayer&quot;:true}" fill-rule="nonzero" stroke-linecap="butt" stroke-linejoin="miter" stroke-miterlimit="10" stroke-dasharray="" stroke-dashoffset="0" style="mix-blend-mode: normal"><path d="M225.75,181.33333c0,-8.60644 6.9769,-15.58334 15.58334,-15.58334c8.60644,0 15.58334,6.9769 15.58334,15.58334c0,8.60644 -6.9769,15.58334 -15.58334,15.58334c-8.60644,0 -15.58334,-6.9769 -15.58334,-15.58334z" fill="#0051ff" stroke="#002f93" stroke-width="2.5"/><path d="M224.41667,180c0,-8.60644 6.9769,-15.58334 15.58334,-15.58334c8.60644,0 15.58334,6.9769 15.58334,15.58334c0,8.60644 -6.9769,15.58334 -15.58334,15.58334c-8.60644,0 -15.58334,-6.9769 -15.58334,-15.58334z" fill="#0051ff" stroke="#003cbd" stroke-width="2.5"/><text transform="translate(228.85001,186.60209) scale(0.5,0.5)" font-size="40" xml:space="preserve" fill="#ffffff" fill-rule="nonzero" stroke="none" stroke-width="1" stroke-linecap="butt" stroke-linejoin="miter" stroke-miterlimit="10" stroke-dasharray="" stroke-dashoffset="0" font-family="Sans Serif" font-weight="normal" text-anchor="start" style="mix-blend-mode: normal"><tspan x="0" dy="0">2x</tspan></text></g></g></svg>