<svg version="1.1" xmlns="http://www.w3.org/2000/svg" xmlns:xlink="http://www.w3.org/1999/xlink" width="217.37499" height="76.56354" viewBox="0,0,217.37499,76.56354"><defs><radialGradient cx="162.5961" cy="178.65965" r="33.17092" gradientUnits="userSpaceOnUse" id="color-1"><stop offset="0" stop-color="#979797"/><stop offset="1" stop-color="#666666"/></radialGradient><linearGradient x1="153.0927" y1="176.5593" x2="153.0927" y2="201.0838" gradientUnits="userSpaceOnUse" id="color-2"><stop offset="0" stop-color="#eedfa2"/><stop offset="0.59" stop-color="#a9935a"/><stop offset="1" stop-color="#fee3a5"/></linearGradient><linearGradient x1="175.57378" y1="176.1967" x2="175.57378" y2="200.7212" gradientUnits="userSpaceOnUse" id="color-3"><stop offset="0" stop-color="#eedfa2"/><stop offset="0.59" stop-color="#a9935a"/><stop offset="1" stop-color="#fee3a5"/></linearGradient><linearGradient x1="163.97064" y1="157.3416" x2="163.97064" y2="181.8661" gradientUnits="userSpaceOnUse" id="color-4"><stop offset="0" stop-color="#eedfa2"/><stop offset="0.59" stop-color="#a9935a"/><stop offset="1" stop-color="#fee3a5"/></linearGradient><linearGradient x1="163.97064" y1="157.3416" x2="163.97064" y2="181.8661" gradientUnits="userSpaceOnUse" id="color-5"><stop offset="0" stop-color="#eedfa2"/><stop offset="0.59" stop-color="#a9935a"/><stop offset="1" stop-color="#fee3a5"/></linearGradient></defs><g transform="translate(-129.85001,-145.2685)"><g data-paper-data="{&quot;isPaintingLayer&quot;:true}" fill-rule="nonzero" stroke-linecap="butt" stroke-linejoin="miter" stroke-miterlimit="10" stroke-dasharray="" stroke-dashoffset="0" style="mix-blend-mode: normal"><path d="M180.38901,210.78069v-60.78999c0,0 141.00958,0 154.93874,0c7.20669,0 11.89725,3.166 11.89725,12.02469c0,14.00683 0,21.88394 0,35.89077c0,8.86989 -3.60415,12.87453 -12.21771,12.87453c-14.30436,0 -154.61828,0 -154.61828,0z" data-paper-data="{&quot;origPos&quot;:null}" fill="#000000" stroke="none" stroke-width="0"/><path d="M197.15673,180.18942c0,18.31979 -14.67538,33.17092 -32.77836,33.17092c-18.10299,0 -32.77836,-14.85113 -32.77836,-33.17092c0,-18.31979 14.67538,-33.17092 32.77836,-33.17092c18.10299,0 32.77836,14.85113 32.77836,33.17092z" data-paper-data="{&quot;origPos&quot;:null}" fill="url(#color-1)" stroke="#000000" stroke-width="3.5"/><text transform="translate(199.90724,168.06035) scale(0.40867,0.40867)" font-size="40" xml:space="preserve" data-paper-data="{&quot;origPos&quot;:null}" fill="#ffffff" fill-rule="nonzero" stroke="none" stroke-width="1" stroke-linecap="butt" stroke-linejoin="miter" stroke-miterlimit="10" stroke-dasharray="" stroke-dashoffset="0" font-family="Sans Serif" font-weight="normal" text-anchor="start" style="mix-blend-mode: normal"><tspan x="0" dy="0">Trillionaire!</tspan></text><text transform="translate(201.82997,181.38392) scale(0.24646,0.24646)" font-size="40" xml:space="preserve" data-paper-data="{&quot;origPos&quot;:null}" fill="#ffffff" fill-rule="nonzero" stroke="none" stroke-width="1" stroke-linecap="butt" stroke-linejoin="miter" stroke-miterlimit="10" stroke-dasharray="" stroke-dashoffset="0" font-family="Sans Serif" font-weight="normal" text-anchor="start" style="mix-blend-mode: normal"><tspan x="0" dy="0">Get 1 trillion robux</tspan></text><g data-paper-data="{&quot;origPos&quot;:null}"><path d="M198.01164,197.27545c37.96911,0 89.7537,0 97.68987,0c4.24032,0 6.37975,0.76819 6.37975,5.58228c0,1.37926 -0.17224,10.75061 -0.14088,12.1295c0.05113,2.24869 -1.07557,4.66689 -4.31946,4.76653c-6.86018,0.2107 -61.67399,1.68787 -100.60609,1.24637c-2.152,-0.02441 -4.38607,-2.73462 -4.18671,-5.78165c0.10667,-1.63043 0,-7.83833 0,-11.96202c0,-3.9291 1.16692,-5.98101 5.18354,-5.98101z" data-paper-data="{&quot;origPos&quot;:null,&quot;index&quot;:null}" fill="#000000" stroke="#ffffff" stroke-width="1.5"/><text transform="translate(197.21417,213.82292) scale(0.39874,0.39874)" font-size="40" xml:space="preserve" data-paper-data="{&quot;origPos&quot;:null}" fill="#ffffff" fill-rule="nonzero" stroke="none" stroke-width="3" stroke-linecap="butt" stroke-linejoin="miter" stroke-miterlimit="10" stroke-dasharray="" stroke-dashoffset="0" font-family="Sans Serif" font-weight="normal" text-anchor="start" style="mix-blend-mode: normal"><tspan x="0" dy="0">Achievement</tspan></text></g><path d="M150.45784,176.11854c1.55798,-0.90181 3.47924,-0.90181 5.03722,0l6.58713,3.79729c1.55753,0.89924 2.51745,2.56068 2.51862,4.35914v7.63332c-0.00607,1.79207 -0.96562,3.44546 -2.51862,4.33976l-6.58713,3.82635c-1.55798,0.90181 -3.47924,0.90181 -5.03722,0l-6.58713,-3.80697c-1.55898,-0.89777 -2.51944,-2.56011 -2.5186,-4.35914v-7.63332c0.00115,-1.79846 0.96107,-3.4599 2.5186,-4.35914zM151.33936,177.84282l-6.41277,3.71011c-1.01531,0.57921 -1.64065,1.65971 -1.6371,2.82859v7.41052c-0.00154,1.16836 0.62328,2.24788 1.6371,2.82859l6.41277,3.71011c1.0141,0.5809 2.2601,0.5809 3.2742,0l6.41277,-3.71011c1.01382,-0.58071 1.63862,-1.66023 1.6371,-2.82859v-7.41052c0.00355,-1.16888 -0.62179,-2.24939 -1.6371,-2.82859l-6.41277,-3.71011c-1.0141,-0.5809 -2.2601,-0.5809 -3.2742,0zM151.62998,179.92551c0.83213,-0.48509 1.86083,-0.48509 2.69296,0l5.05661,2.9061c0.82207,0.47451 1.33361,1.34674 1.34648,2.29582v5.87998c-0.02255,0.93626 -0.53332,1.79246 -1.34648,2.25707l-5.05661,2.9061c-0.83213,0.48509 -1.86083,0.48509 -2.69296,0l-5.05659,-2.9061c-0.83389,-0.4768 -1.34789,-1.36432 -1.3465,-2.32488v-5.81218c0.00949,-0.95256 0.52149,-1.82924 1.3465,-2.3055l5.05659,-2.9061zM155.88256,185.17586h-5.81218v5.81218h5.81218z" fill="url(#color-2)" stroke="none" stroke-width="1"/><path d="M172.93892,175.75594c1.55798,-0.90181 3.47924,-0.90181 5.03722,0l6.58713,3.79729c1.55753,0.89924 2.51745,2.56068 2.51862,4.35914v7.63332c-0.00607,1.79207 -0.96562,3.44546 -2.51862,4.33976l-6.58713,3.82635c-1.55798,0.90181 -3.47924,0.90181 -5.03722,0l-6.58713,-3.80697c-1.55898,-0.89777 -2.51944,-2.56011 -2.5186,-4.35914v-7.63332c0.00115,-1.79846 0.96107,-3.4599 2.5186,-4.35914zM173.82044,177.48022l-6.41277,3.71011c-1.01531,0.57921 -1.64065,1.65971 -1.6371,2.82859v7.41052c-0.00154,1.16836 0.62328,2.24788 1.6371,2.82859l6.41277,3.71011c1.0141,0.5809 2.2601,0.5809 3.2742,0l6.41277,-3.71011c1.01382,-0.58071 1.63862,-1.66023 1.6371,-2.82859v-7.41052c0.00355,-1.16888 -0.62179,-2.24939 -1.6371,-2.82859l-6.41277,-3.71011c-1.0141,-0.5809 -2.2601,-0.5809 -3.2742,0zM174.11106,179.56291c0.83213,-0.48509 1.86083,-0.48509 2.69296,0l5.05661,2.9061c0.82207,0.47451 1.33361,1.34674 1.34648,2.29582v5.87998c-0.02255,0.93626 -0.53332,1.79246 -1.34648,2.25707l-5.05661,2.9061c-0.83213,0.48509 -1.86083,0.48509 -2.69296,0l-5.05659,-2.9061c-0.83389,-0.4768 -1.34789,-1.36432 -1.3465,-2.32488v-5.81218c0.00949,-0.95256 0.52149,-1.82924 1.3465,-2.3055l5.05659,-2.9061zM178.36364,184.81326h-5.81218v5.81218h5.81218z" fill="url(#color-3)" stroke="none" stroke-width="1"/><path d="M161.33579,156.90084c1.55798,-0.90181 3.47924,-0.90181 5.03722,0l6.58713,3.79729c1.55753,0.89924 2.51745,2.56068 2.51862,4.35914v7.63332c-0.00607,1.79207 -0.96562,3.44546 -2.51862,4.33976l-6.58713,3.82635c-1.55798,0.90181 -3.47924,0.90181 -5.03722,0l-6.58713,-3.80697c-1.55898,-0.89777 -2.51944,-2.56011 -2.5186,-4.35914v-7.63332c0.00115,-1.79846 0.96107,-3.4599 2.5186,-4.35914zM162.2173,158.62512l-6.41277,3.71011c-1.01531,0.57921 -1.64065,1.65971 -1.6371,2.82859v7.41052c-0.00154,1.16836 0.62328,2.24788 1.6371,2.82859l6.41277,3.71011c1.0141,0.5809 2.2601,0.5809 3.2742,0l6.41277,-3.71011c1.01382,-0.58071 1.63862,-1.66023 1.6371,-2.82859v-7.41052c0.00355,-1.16888 -0.62179,-2.24939 -1.6371,-2.82859l-6.41277,-3.71011c-1.0141,-0.5809 -2.2601,-0.5809 -3.2742,0zM162.50792,160.70781c0.83213,-0.48509 1.86083,-0.48509 2.69296,0l5.05661,2.9061c0.82207,0.47451 1.33361,1.34674 1.34648,2.29582v5.87998c-0.02255,0.93626 -0.53332,1.79246 -1.34648,2.25707l-5.05661,2.9061c-0.83213,0.48509 -1.86083,0.48509 -2.69296,0l-5.05659,-2.9061c-0.83389,-0.4768 -1.34789,-1.36432 -1.3465,-2.32488v-5.81218c0.00949,-0.95256 0.52149,-1.82924 1.3465,-2.3055l5.05659,-2.9061zM166.7605,165.95816h-5.81218v5.81218h5.81218z" fill="url(#color-4)" stroke="none" stroke-width="1"/><path d="M161.33579,156.90084c1.55798,-0.90181 3.47924,-0.90181 5.03722,0l6.58713,3.79729c1.55753,0.89924 2.51745,2.56068 2.51862,4.35914v7.63332c-0.00607,1.79207 -0.96562,3.44546 -2.51862,4.33976l-6.58713,3.82635c-1.55798,0.90181 -3.47924,0.90181 -5.03722,0l-6.58713,-3.80697c-1.55898,-0.89777 -2.51944,-2.56011 -2.5186,-4.35914v-7.63332c0.00115,-1.79846 0.96107,-3.4599 2.5186,-4.35914zM162.2173,158.62512l-6.41277,3.71011c-1.01531,0.57921 -1.64065,1.65971 -1.6371,2.82859v7.41052c-0.00154,1.16836 0.62328,2.24788 1.6371,2.82859l6.41277,3.71011c1.0141,0.5809 2.2601,0.5809 3.2742,0l6.41277,-3.71011c1.01382,-0.58071 1.63862,-1.66023 1.6371,-2.82859v-7.41052c0.00355,-1.16888 -0.62179,-2.24939 -1.6371,-2.82859l-6.41277,-3.71011c-1.0141,-0.5809 -2.2601,-0.5809 -3.2742,0zM162.50792,160.70781c0.83213,-0.48509 1.86083,-0.48509 2.69296,0l5.05661,2.9061c0.82207,0.47451 1.33361,1.34674 1.34648,2.29582v5.87998c-0.02255,0.93626 -0.53332,1.79246 -1.34648,2.25707l-5.05661,2.9061c-0.83213,0.48509 -1.86083,0.48509 -2.69296,0l-5.05659,-2.9061c-0.83389,-0.4768 -1.34789,-1.36432 -1.3465,-2.32488v-5.81218c0.00949,-0.95256 0.52149,-1.82924 1.3465,-2.3055l5.05659,-2.9061zM166.7605,165.95816h-5.81218v5.81218h5.81218z" fill="url(#color-5)" stroke="none" stroke-width="1"/></g></g></svg>