<svg version="1.1" xmlns="http://www.w3.org/2000/svg" xmlns:xlink="http://www.w3.org/1999/xlink" width="217.37499" height="76.56354" viewBox="0,0,217.37499,76.56354"><defs><radialGradient cx="162.5961" cy="178.65965" r="33.17092" gradientUnits="userSpaceOnUse" id="color-1"><stop offset="0" stop-color="#979797"/><stop offset="1" stop-color="#666666"/></radialGradient><linearGradient x1="164.30221" y1="162.44711" x2="164.30221" y2="201.80657" gradientUnits="userSpaceOnUse" id="color-2"><stop offset="0" stop-color="#eedfa2"/><stop offset="0.59" stop-color="#a9935a"/><stop offset="1" stop-color="#fee3a5"/></linearGradient></defs><g transform="translate(-129.85001,-145.2685)"><g data-paper-data="{&quot;isPaintingLayer&quot;:true}" fill-rule="nonzero" stroke-linecap="butt" stroke-linejoin="miter" stroke-miterlimit="10" stroke-dasharray="" stroke-dashoffset="0" style="mix-blend-mode: normal"><path d="M180.38901,210.78069v-60.78999c0,0 141.00958,0 154.93874,0c7.20669,0 11.89725,3.166 11.89725,12.02469c0,14.00683 0,21.88394 0,35.89077c0,8.86989 -3.60415,12.87453 -12.21771,12.87453c-14.30436,0 -154.61828,0 -154.61828,0z" data-paper-data="{&quot;origPos&quot;:null}" fill="#000000" stroke="none" stroke-width="0"/><path d="M197.15673,180.18942c0,18.31979 -14.67538,33.17092 -32.77836,33.17092c-18.10299,0 -32.77836,-14.85113 -32.77836,-33.17092c0,-18.31979 14.67538,-33.17092 32.77836,-33.17092c18.10299,0 32.77836,14.85113 32.77836,33.17092z" data-paper-data="{&quot;origPos&quot;:null}" fill="url(#color-1)" stroke="#000000" stroke-width="3.5"/><text transform="translate(199.90724,168.06035) scale(0.40867,0.40867)" font-size="40" xml:space="preserve" data-paper-data="{&quot;origPos&quot;:null}" fill="#ffffff" fill-rule="nonzero" stroke="none" stroke-width="1" stroke-linecap="butt" stroke-linejoin="miter" stroke-miterlimit="10" stroke-dasharray="" stroke-dashoffset="0" font-family="Sans Serif" font-weight="normal" text-anchor="start" style="mix-blend-mode: normal"><tspan x="0" dy="0">Nice</tspan></text><text transform="translate(201.82997,181.38392) scale(0.24646,0.24646)" font-size="40" xml:space="preserve" data-paper-data="{&quot;origPos&quot;:null}" fill="#ffffff" fill-rule="nonzero" stroke="none" stroke-width="1" stroke-linecap="butt" stroke-linejoin="miter" stroke-miterlimit="10" stroke-dasharray="" stroke-dashoffset="0" font-family="Sans Serif" font-weight="normal" text-anchor="start" style="mix-blend-mode: normal"><tspan x="0" dy="0">Get 1,000 robux</tspan></text><g data-paper-data="{&quot;origPos&quot;:null}"><path d="M198.01164,197.27545c37.96911,0 89.7537,0 97.68987,0c4.24032,0 6.37975,0.76819 6.37975,5.58228c0,1.37926 -0.17224,10.75061 -0.14088,12.1295c0.05113,2.24869 -1.07557,4.66689 -4.31946,4.76653c-6.86018,0.2107 -61.67399,1.68787 -100.60609,1.24637c-2.152,-0.02441 -4.38607,-2.73462 -4.18671,-5.78165c0.10667,-1.63043 0,-7.83833 0,-11.96202c0,-3.9291 1.16692,-5.98101 5.18354,-5.98101z" data-paper-data="{&quot;origPos&quot;:null,&quot;index&quot;:null}" fill="#000000" stroke="#ffffff" stroke-width="1.5"/><text transform="translate(197.21417,213.82292) scale(0.39874,0.39874)" font-size="40" xml:space="preserve" data-paper-data="{&quot;origPos&quot;:null}" fill="#ffffff" fill-rule="nonzero" stroke="none" stroke-width="3" stroke-linecap="butt" stroke-linejoin="miter" stroke-miterlimit="10" stroke-dasharray="" stroke-dashoffset="0" font-family="Sans Serif" font-weight="normal" text-anchor="start" style="mix-blend-mode: normal"><tspan x="0" dy="0">Achievement</tspan></text></g><path d="M160.07352,161.73973c2.50041,-1.44733 5.58384,-1.44733 8.08425,0l10.57172,6.09428c2.49968,1.44319 4.04027,4.10964 4.04214,6.99599v12.25074c-0.00974,2.8761 -1.54972,5.52964 -4.04214,6.9649l-10.57172,6.14092c-2.50041,1.44733 -5.58384,1.44733 -8.08425,0l-10.57172,-6.10983c-2.50201,-1.44084 -4.04346,-4.10873 -4.04211,-6.99599v-12.25074c0.00184,-2.88636 1.54242,-5.55281 4.04211,-6.99599zM161.48827,164.50704l-10.29188,5.95437c-1.62947,0.92957 -2.63309,2.66367 -2.62739,4.53962v11.89318c-0.00248,1.8751 1.0003,3.60764 2.62739,4.53962l10.29188,5.95437c1.62754,0.93229 3.62724,0.93229 5.25478,0l10.29188,-5.95437c1.62708,-0.93198 2.62983,-2.66452 2.62739,-4.53962v-11.89318c0.0057,-1.87595 -0.99792,-3.61004 -2.62739,-4.53962l-10.29188,-5.95437c-1.62754,-0.93229 -3.62724,-0.93229 -5.25478,0zM161.95469,167.84955c1.33549,-0.77853 2.98646,-0.77853 4.32194,0l8.11538,4.66401c1.31935,0.76155 2.14031,2.16139 2.16097,3.68457v9.43681c-0.03619,1.50261 -0.85591,2.87673 -2.16097,3.62238l-8.11537,4.66401c-1.33549,0.77853 -2.98646,0.77853 -4.32194,0l-8.11534,-4.66401c-1.33832,-0.76522 -2.16324,-2.18959 -2.16101,-3.7312v-9.32799c0.01523,-1.52876 0.83695,-2.93575 2.16101,-3.7001l8.11534,-4.66401zM168.77967,176.27586h-9.32799v9.32798h9.32799z" fill="url(#color-2)" stroke="none" stroke-width="1"/></g></g></svg>