<svg version="1.1" xmlns="http://www.w3.org/2000/svg" xmlns:xlink="http://www.w3.org/1999/xlink" width="217.37499" height="76.56354" viewBox="0,0,217.37499,76.56354"><defs><radialGradient cx="165.29141" cy="177.31199" r="33.17092" gradientUnits="userSpaceOnUse" id="color-1"><stop offset="0" stop-color="#979797"/><stop offset="1" stop-color="#666666"/></radialGradient><linearGradient x1="165.27824" y1="155.0605" x2="165.27824" y2="181.57439" gradientUnits="userSpaceOnUse" id="color-2"><stop offset="0" stop-color="#fff800"/><stop offset="1" stop-color="#fff4b1"/></linearGradient><linearGradient x1="153.59659" y1="174.90974" x2="153.59659" y2="201.42363" gradientUnits="userSpaceOnUse" id="color-3"><stop offset="0" stop-color="#fff800"/><stop offset="1" stop-color="#fff4b1"/></linearGradient><linearGradient x1="177.09472" y1="174.8648" x2="177.09472" y2="201.37869" gradientUnits="userSpaceOnUse" id="color-4"><stop offset="0" stop-color="#fff800"/><stop offset="1" stop-color="#fff4b1"/></linearGradient></defs><g transform="translate(-129.85001,-145.2685)"><g data-paper-data="{&quot;isPaintingLayer&quot;:true}" fill-rule="nonzero" stroke-linecap="butt" stroke-linejoin="miter" stroke-miterlimit="10" stroke-dasharray="" stroke-dashoffset="0" style="mix-blend-mode: normal"><path d="M180.38901,210.78069v-60.78999c0,0 141.00958,0 154.93874,0c7.20669,0 11.89725,3.166 11.89725,12.02469c0,14.00683 0,21.88394 0,35.89077c0,8.86989 -3.60415,12.87453 -12.21771,12.87453c-14.30436,0 -154.61828,0 -154.61828,0z" data-paper-data="{&quot;origPos&quot;:null}" fill="#000000" stroke="none" stroke-width="0"/><path d="M197.15673,180.18942c0,18.31979 -14.67538,33.17092 -32.77836,33.17092c-18.10299,0 -32.77836,-14.85113 -32.77836,-33.17092c0,-18.31979 14.67538,-33.17092 32.77836,-33.17092c18.10299,0 32.77836,14.85113 32.77836,33.17092z" data-paper-data="{&quot;origPos&quot;:null}" fill="url(#color-1)" stroke="#000000" stroke-width="3.5"/><text transform="translate(199.90724,168.40245) scale(0.38016,0.38016)" font-size="40" xml:space="preserve" data-paper-data="{&quot;origPos&quot;:null}" fill="#ffffff" fill-rule="nonzero" stroke="none" stroke-width="1" stroke-linecap="butt" stroke-linejoin="miter" stroke-miterlimit="10" stroke-dasharray="" stroke-dashoffset="0" font-family="Sans Serif" font-weight="normal" text-anchor="start" style="mix-blend-mode: normal"><tspan x="0" dy="0">So much gold!</tspan></text><text transform="translate(201.82997,181.38392) scale(0.24646,0.24646)" font-size="40" xml:space="preserve" data-paper-data="{&quot;origPos&quot;:null}" fill="#ffffff" fill-rule="nonzero" stroke="none" stroke-width="1" stroke-linecap="butt" stroke-linejoin="miter" stroke-miterlimit="10" stroke-dasharray="" stroke-dashoffset="0" font-family="Sans Serif" font-weight="normal" text-anchor="start" style="mix-blend-mode: normal"><tspan x="0" dy="0">Catch 10 golden robux</tspan></text><g data-paper-data="{&quot;origPos&quot;:null}"><path d="M198.01164,197.27545c37.96911,0 89.7537,0 97.68987,0c4.24032,0 6.37975,0.76819 6.37975,5.58228c0,1.37926 -0.17224,10.75061 -0.14088,12.1295c0.05113,2.24869 -1.07557,4.66689 -4.31946,4.76653c-6.86018,0.2107 -61.67399,1.68787 -100.60609,1.24637c-2.152,-0.02441 -4.38607,-2.73462 -4.18671,-5.78165c0.10667,-1.63043 0,-7.83833 0,-11.96202c0,-3.9291 1.16692,-5.98101 5.18354,-5.98101z" data-paper-data="{&quot;origPos&quot;:null,&quot;index&quot;:null}" fill="#000000" stroke="#ffffff" stroke-width="1.5"/><text transform="translate(197.21417,213.82292) scale(0.39874,0.39874)" font-size="40" xml:space="preserve" data-paper-data="{&quot;origPos&quot;:null}" fill="#ffffff" fill-rule="nonzero" stroke="none" stroke-width="3" stroke-linecap="butt" stroke-linejoin="miter" stroke-miterlimit="10" stroke-dasharray="" stroke-dashoffset="0" font-family="Sans Serif" font-weight="normal" text-anchor="start" style="mix-blend-mode: normal"><tspan x="0" dy="0">Achievement</tspan></text></g><path d="M162.42965,154.58399c1.68436,-0.97497 3.76147,-0.97497 5.44583,0l7.12147,4.10532c1.68388,0.97218 2.72166,2.76839 2.72292,4.71275v8.25252c-0.00656,1.93744 -1.04394,3.72495 -2.72292,4.69179l-7.12147,4.13674c-1.68436,0.97497 -3.76147,0.97497 -5.44583,0l-7.12147,-4.11579c-1.68544,-0.9706 -2.72382,-2.76779 -2.7229,-4.71275v-8.25252c0.00124,-1.94434 1.03903,-3.74056 2.7229,-4.71275zM163.38267,156.44815l-6.93296,4.01107c-1.09767,0.62619 -1.77374,1.79434 -1.7699,3.05804v8.01165c-0.00167,1.26314 0.67384,2.43023 1.7699,3.05805l6.93296,4.01107c1.09636,0.62802 2.44343,0.62802 3.5398,0l6.93296,-4.01107c1.09606,-0.62782 1.77155,-1.79492 1.7699,-3.05805v-8.01165c0.00384,-1.2637 -0.67224,-2.43185 -1.7699,-3.05804l-6.93296,-4.01107c-1.09636,-0.62802 -2.44343,-0.62802 -3.5398,0zM163.69687,158.69978c0.89963,-0.52445 2.01178,-0.52445 2.91142,0l5.46679,3.14184c0.88876,0.513 1.44179,1.45599 1.45571,2.48206v6.35695c-0.02438,1.01221 -0.57658,1.93786 -1.45571,2.44016l-5.46679,3.14183c-0.89963,0.52445 -2.01178,0.52445 -2.91142,0l-5.46678,-3.14183c-0.90153,-0.51548 -1.45723,-1.47499 -1.45573,-2.51347v-6.28365c0.01026,-1.02982 0.5638,-1.97762 1.45573,-2.49251l5.46678,-3.14184zM168.29441,164.37603h-6.28365v6.28365h6.28365z" fill="url(#color-2)" stroke="none" stroke-width="1"/><path d="M150.748,174.43323c1.68436,-0.97497 3.76146,-0.97497 5.44582,0l7.12147,4.10532c1.68388,0.97219 2.72166,2.76839 2.72292,4.71274v8.25252c-0.00656,1.93744 -1.04394,3.72495 -2.72292,4.69179l-7.12147,4.13674c-1.68436,0.97497 -3.76146,0.97497 -5.44582,0l-7.12147,-4.11579c-1.68544,-0.9706 -2.72381,-2.76778 -2.7229,-4.71274v-8.25252c0.00124,-1.94435 1.03903,-3.74056 2.7229,-4.71274zM151.70102,176.29739l-6.93296,4.01107c-1.09767,0.6262 -1.77374,1.79434 -1.7699,3.05805v8.01165c-0.00167,1.26313 0.67384,2.43022 1.7699,3.05805l6.93296,4.01107c1.09636,0.62802 2.44343,0.62802 3.5398,0l6.93296,-4.01107c1.09606,-0.62782 1.77154,-1.79491 1.7699,-3.05805v-8.01165c0.00384,-1.2637 -0.67223,-2.43185 -1.7699,-3.05805l-6.93296,-4.01107c-1.09636,-0.62802 -2.44343,-0.62802 -3.5398,0zM152.01522,178.54902c0.89963,-0.52444 2.01178,-0.52444 2.91141,0l5.46679,3.14183c0.88876,0.513 1.44179,1.45599 1.45571,2.48206v6.35696c-0.02438,1.01221 -0.57658,1.93786 -1.45571,2.44016l-5.46679,3.14183c-0.89963,0.52444 -2.01178,0.52444 -2.91141,0l-5.46678,-3.14183c-0.90154,-0.51548 -1.45723,-1.47499 -1.45573,-2.51347v-6.28365c0.01026,-1.02982 0.5638,-1.97763 1.45573,-2.49252l5.46678,-3.14183zM156.61276,184.22527h-6.28365v6.28365h6.28365z" fill="url(#color-3)" stroke="none" stroke-width="1"/><path d="M174.24612,174.38829c1.68436,-0.97497 3.76147,-0.97497 5.44583,0l7.12147,4.10532c1.68388,0.97218 2.72166,2.76839 2.72292,4.71274v8.25252c-0.00656,1.93744 -1.04394,3.72495 -2.72292,4.69179l-7.12147,4.13674c-1.68436,0.97497 -3.76147,0.97497 -5.44583,0l-7.12147,-4.11579c-1.68544,-0.9706 -2.72382,-2.76778 -2.7229,-4.71274v-8.25252c0.00124,-1.94434 1.03903,-3.74056 2.7229,-4.71275zM175.19915,176.25245l-6.93296,4.01107c-1.09767,0.62619 -1.77374,1.79434 -1.7699,3.05804v8.01165c-0.00167,1.26314 0.67384,2.43023 1.7699,3.05805l6.93296,4.01107c1.09636,0.62802 2.44343,0.62802 3.5398,0l6.93296,-4.01107c1.09606,-0.62782 1.77155,-1.79492 1.7699,-3.05805v-8.01165c0.00384,-1.2637 -0.67224,-2.43185 -1.7699,-3.05804l-6.93296,-4.01107c-1.09636,-0.62802 -2.44343,-0.62802 -3.5398,0zM175.51334,178.50408c0.89963,-0.52445 2.01178,-0.52445 2.91142,0l5.46679,3.14184c0.88876,0.513 1.44179,1.45599 1.45571,2.48206v6.35695c-0.02438,1.01221 -0.57658,1.93786 -1.45571,2.44016l-5.46679,3.14183c-0.89963,0.52445 -2.01178,0.52445 -2.91142,0l-5.46678,-3.14183c-0.90153,-0.51548 -1.45723,-1.47499 -1.45573,-2.51347v-6.28365c0.01026,-1.02982 0.5638,-1.97762 1.45573,-2.49251l5.46678,-3.14183zM180.11088,184.18033h-6.28365v6.28365h6.28365z" fill="url(#color-4)" stroke="none" stroke-width="1"/></g></g></svg>