<svg version="1.1" xmlns="http://www.w3.org/2000/svg" xmlns:xlink="http://www.w3.org/1999/xlink" width="960" height="720" viewBox="0,0,960,720"><defs><clipPath id="clip-1"><path d="M-210,-152h960v720h-960z" fill="none" fill-rule="nonzero" stroke="none" stroke-width="1" stroke-linecap="butt"/></clipPath></defs><g transform="translate(210,152)"><g clip-path="url(#clip-1)" data-paper-data="{&quot;isPaintingLayer&quot;:true}" stroke-linejoin="miter" stroke-miterlimit="10" stroke-dasharray="" stroke-dashoffset="0" style="mix-blend-mode: normal"><path d="M-16.27095,169.6209c0.80208,1.91667 1.20313,3.30208 1.20313,4.15625c0,2.03125 -1.65625,3.73958 -4.96875,5.125c-1.69792,0.75 -3.06771,1.125 -4.10937,1.125c-1.04167,0 -1.89583,-0.25521 -2.5625,-0.76562c-0.66667,-0.51042 -1.16146,-1.03125 -1.48437,-1.5625c-0.53125,-1.01042 -2.60937,-5.83333 -6.23437,-14.46875l-2.48437,0.15625h-10.07812v9.03125c0,1.22917 -0.04167,2.15104 -0.125,2.76563c-0.07292,0.61458 -0.32292,1.32292 -0.75,2.125c-0.75,1.4375 -2.83333,2.15625 -6.25,2.15625c-3.72917,0 -5.91146,-0.98958 -6.54687,-2.96875c-0.32292,-0.90625 -0.48437,-2.29167 -0.48437,-4.15625v-44.39062c0,-1.22917 0.03646,-2.15104 0.10938,-2.76562c0.08333,-0.61458 0.33854,-1.32292 0.76563,-2.125c0.75,-1.4375 2.82813,-2.15625 6.23438,-2.15625h17.28125c4.69792,0 9.26042,1.70833 13.6875,5.125c2.13542,1.64583 3.89583,3.88542 5.28125,6.71875c1.38542,2.82292 2.07813,5.96875 2.07813,9.4375c0,6.03125 -2,10.98958 -6,14.875c1.17708,2.83333 2.98958,7.02083 5.4375,12.5625zM-46.9897,149.23028h10.23438c1.55208,0 3.09896,-0.58854 4.64063,-1.76562c1.55208,-1.17708 2.32813,-2.9375 2.32813,-5.28125c0,-2.34375 -0.77604,-4.11458 -2.32812,-5.3125c-1.54167,-1.20833 -3.14062,-1.8125 -4.79687,-1.8125h-10.07812zM-13.46913,158.4959c0,-6.39583 2.23958,-11.67187 6.71875,-15.82812c4.47917,-4.16667 9.59896,-6.25 15.35938,-6.25c5.76042,0 10.85417,2.06771 15.28125,6.20313c4.42708,4.13542 6.64063,9.40104 6.64063,15.79688c0,4.42708 -1.14583,8.36458 -3.4375,11.8125c-2.29167,3.4375 -5.07812,5.96875 -8.35937,7.59375c-3.28125,1.625 -6.68229,2.4375 -10.20312,2.4375c-3.52083,0 -6.9375,-0.86458 -10.25,-2.59375c-3.30208,-1.73958 -6.08854,-4.30208 -8.35937,-7.6875c-2.26042,-3.38542 -3.39062,-7.21354 -3.39062,-11.48437zM3.24962,164.23028c1.70833,1.30208 3.44271,1.95313 5.20313,1.95313c1.76042,0 3.52083,-0.66667 5.28125,-2c1.76042,-1.33333 2.64063,-3.30729 2.64063,-5.92187c0,-2.61458 -0.82812,-4.5625 -2.48437,-5.84375c-1.65625,-1.28125 -3.44271,-1.92187 -5.35937,-1.92187c-1.91667,0 -3.70312,0.66667 -5.35937,2c-1.65625,1.33333 -2.48437,3.29688 -2.48437,5.89063c0,2.58333 0.85417,4.53125 2.5625,5.84375zM58.84332,137.46465c4.75,0 9.10938,2.10938 13.07813,6.32813c3.97917,4.20833 5.96875,9.09896 5.96875,14.67188c0,5.57292 -1.97396,10.45313 -5.92187,14.64063c-3.94792,4.1875 -8.1875,6.28125 -12.71875,6.28125c-4.53125,0 -7.75521,-1.28125 -9.67187,-3.84375c-0.42708,2.61458 -2.72396,3.92188 -6.89062,3.92188c-3.35417,0 -5.40625,-0.71875 -6.15625,-2.15625c-0.375,-0.80208 -0.60417,-1.51042 -0.6875,-2.125c-0.07292,-0.61458 -0.10937,-1.53646 -0.10937,-2.76562v-47.75c0,-1.22917 0.03646,-2.15104 0.10938,-2.76562c0.08333,-0.61458 0.3125,-1.29687 0.6875,-2.04687c0.75,-1.4375 2.82813,-2.15625 6.23438,-2.15625c3.36458,0 5.39063,0.71875 6.07813,2.15625c0.42708,0.80208 0.68229,1.51042 0.76563,2.125c0.08333,0.61458 0.125,1.53646 0.125,2.76563v16.64063c2.13542,-2.61458 5.17188,-3.92187 9.10938,-3.92187zM51.84332,163.3084c1.3125,1.4375 2.95313,2.15625 4.92188,2.15625c1.97917,0 3.66146,-0.71875 5.04688,-2.15625c1.38542,-1.44792 2.07813,-3.05208 2.07813,-4.8125c0,-1.76042 -0.64062,-3.36979 -1.92187,-4.82812c-1.28125,-1.46875 -2.98958,-2.20312 -5.125,-2.20312c-2.125,0 -3.81771,0.75 -5.07812,2.25c-1.25,1.48958 -1.875,3.09896 -1.875,4.82813c0,1.72917 0.65104,3.31771 1.95313,4.76563zM83.0939,124.58965c0,-1.22917 0.03646,-2.15104 0.10938,-2.76562c0.08333,-0.61458 0.3125,-1.32292 0.6875,-2.125c0.75,-1.4375 2.82813,-2.15625 6.23438,-2.15625c3.26042,0 5.28646,0.71875 6.07813,2.15625c0.42708,0.80208 0.68229,1.52604 0.76563,2.17188c0.08333,0.63542 0.125,1.56771 0.125,2.79688v37.03125c0,1.92708 0.15625,3.14583 0.46875,3.65625c0.32292,0.5 1.03125,0.75 2.125,0.75c1.09375,0 1.82813,0.04167 2.20313,0.125c0.375,0.07292 0.82813,0.29688 1.35938,0.67188c1.0625,0.69792 1.59375,2.59375 1.59375,5.6875c0,3.35417 -0.53125,5.40625 -1.59375,6.15625c-1.38542,0.95833 -4.69271,1.11979 -9.92187,0.48438c-4.10417,-0.54167 -6.77083,-1.90625 -8,-4.09375c-1.48958,-2.60417 -2.23437,-6.76042 -2.23437,-12.46875zM108.05075,158.4959c0,-6.39583 2.23958,-11.67187 6.71875,-15.82812c4.47917,-4.16667 9.59896,-6.25 15.35938,-6.25c5.76042,0 10.85417,2.06771 15.28125,6.20313c4.42708,4.13542 6.64063,9.40104 6.64063,15.79688c0,4.42708 -1.14583,8.36458 -3.4375,11.8125c-2.29167,3.4375 -5.07812,5.96875 -8.35937,7.59375c-3.28125,1.625 -6.68229,2.4375 -10.20312,2.4375c-3.52083,0 -6.9375,-0.86458 -10.25,-2.59375c-3.30208,-1.73958 -6.08854,-4.30208 -8.35937,-7.6875c-2.26042,-3.38542 -3.39062,-7.21354 -3.39062,-11.48437zM124.7695,164.23028c1.70833,1.30208 3.44271,1.95313 5.20313,1.95313c1.76042,0 3.52083,-0.66667 5.28125,-2c1.76042,-1.33333 2.64063,-3.30729 2.64063,-5.92187c0,-2.61458 -0.82812,-4.5625 -2.48437,-5.84375c-1.65625,-1.28125 -3.44271,-1.92187 -5.35937,-1.92187c-1.91667,0 -3.70312,0.66667 -5.35937,2c-1.65625,1.33333 -2.48437,3.29688 -2.48437,5.89063c0,2.58333 0.85417,4.53125 2.5625,5.84375zM184.85693,158.41778l8.875,8.96875c1.91667,1.91667 2.875,3.55729 2.875,4.92188c0,1.35417 -0.95833,2.97917 -2.875,4.875c-1.91667,1.89583 -3.54167,2.84375 -4.875,2.84375c-1.33333,0 -2.96354,-0.96354 -4.89062,-2.89062l-8.79687,-8.875l-8.875,8.875c-1.92708,1.92708 -3.54167,2.89063 -4.84375,2.89063c-1.30208,0 -2.92708,-0.94792 -4.875,-2.84375c-1.94792,-1.89583 -2.92187,-3.52083 -2.92187,-4.875c0,-1.36458 0.95833,-3.00521 2.875,-4.92187l8.875,-8.96875l-8.875,-8.95312c-1.91667,-1.91667 -2.875,-3.55729 -2.875,-4.92187c0,-1.36458 0.97396,-3.00521 2.92188,-4.92187c1.94792,-1.91667 3.57292,-2.875 4.875,-2.875c1.30208,0 2.91667,0.95833 4.84375,2.875l8.875,8.96875l8.79688,-8.96875c1.92708,-1.91667 3.55729,-2.875 4.89063,-2.875c1.33333,0 2.95833,0.95833 4.875,2.875c1.91667,1.91667 2.875,3.55729 2.875,4.92188c0,1.36458 -0.95833,3.00521 -2.875,4.92188zM257.89438,164.1834l1.4375,-1.04687c1.8125,-1.0625 3.09375,-1.59375 3.84375,-1.59375c1.64583,0 3.43229,1.49479 5.35938,4.48438c1.16667,1.86458 1.75,3.35938 1.75,4.48438c0,1.11458 -0.35937,2.04688 -1.07812,2.79688c-0.71875,0.73958 -1.55729,1.40625 -2.51562,2c-0.95833,0.58333 -1.88021,1.14063 -2.76562,1.67188c-0.875,0.53125 -2.67187,1.22396 -5.39062,2.07813c-2.71875,0.85417 -5.34896,1.28125 -7.89062,1.28125c-2.53125,0 -5.08854,-0.33333 -7.67187,-1c-2.58333,-0.66667 -5.25,-1.78646 -8,-3.35937c-2.75,-1.57292 -5.21875,-3.48958 -7.40625,-5.75c-2.1875,-2.27083 -3.98958,-5.17708 -5.40625,-8.71875c-1.40625,-3.55208 -2.10937,-7.40625 -2.10937,-11.5625c0,-4.16667 0.69271,-7.94271 2.07813,-11.32812c1.38542,-3.38542 3.15625,-6.18229 5.3125,-8.39062c2.16667,-2.21875 4.63542,-4.07292 7.40625,-5.5625c5.22917,-2.88542 10.48438,-4.32812 15.76563,-4.32812c2.5,0 5.04167,0.39063 7.625,1.17188c2.59375,0.77083 4.55729,1.55208 5.89063,2.34375l1.92188,1.125c0.95833,0.58333 1.70313,1.0625 2.23438,1.4375c1.38542,1.125 2.07813,2.39583 2.07813,3.8125c0,1.40625 -0.55729,2.88542 -1.67187,4.4375c-2.08333,2.875 -3.94792,4.3125 -5.59375,4.3125c-0.96875,0 -2.33333,-0.58333 -4.09375,-1.75c-2.23958,-1.82292 -5.22396,-2.73437 -8.95312,-2.73437c-3.46875,0 -6.88021,1.20313 -10.23437,3.60938c-1.60417,1.16667 -2.94271,2.81771 -4.01562,4.95313c-1.0625,2.13542 -1.59375,4.55208 -1.59375,7.25c0,2.6875 0.53125,5.09896 1.59375,7.23438c1.07292,2.13542 2.4375,3.81771 4.09375,5.04688c3.25,2.34375 6.63542,3.51563 10.15625,3.51563c1.65625,0 3.21354,-0.21354 4.67188,-0.64062c1.46875,-0.42708 2.52604,-0.85417 3.17188,-1.28125zM275.5737,124.58965c0,-1.22917 0.03646,-2.15104 0.10938,-2.76562c0.08333,-0.61458 0.3125,-1.32292 0.6875,-2.125c0.75,-1.4375 2.82813,-2.15625 6.23438,-2.15625c3.26042,0 5.28646,0.71875 6.07813,2.15625c0.42708,0.80208 0.68229,1.52604 0.76563,2.17188c0.08333,0.63542 0.125,1.56771 0.125,2.79688v37.03125c0,1.92708 0.15625,3.14583 0.46875,3.65625c0.32292,0.5 1.03125,0.75 2.125,0.75c1.09375,0 1.82813,0.04167 2.20313,0.125c0.375,0.07292 0.82813,0.29688 1.35938,0.67188c1.0625,0.69792 1.59375,2.59375 1.59375,5.6875c0,3.35417 -0.53125,5.40625 -1.59375,6.15625c-1.38542,0.95833 -4.69271,1.11979 -9.92187,0.48438c-4.10417,-0.54167 -6.77083,-1.90625 -8,-4.09375c-1.48958,-2.60417 -2.23437,-6.76042 -2.23437,-12.46875zM301.73367,144.41778c0,-1.21875 0.03646,-2.13542 0.10938,-2.75c0.08333,-0.61458 0.31251,-1.32292 0.68753,-2.125c0.75,-1.38542 2.82813,-2.07812 6.23438,-2.07812c2.5625,0 4.38021,0.45313 5.45313,1.35938c0.90625,0.75 1.38542,1.89583 1.4375,3.4375c0.05208,0.53125 0.07813,1.30729 0.07813,2.32813v28c0,1.21875 -0.04167,2.13542 -0.125,2.75c-0.08333,0.61458 -0.33854,1.32292 -0.76562,2.125c-0.6875,1.38542 -2.73958,2.07813 -6.15625,2.07813c-3.35417,0 -5.40625,-0.71875 -6.15625,-2.15625c-0.37502,-0.80208 -0.6042,-1.49479 -0.68753,-2.07812c-0.07292,-0.59375 -0.10937,-1.53125 -0.10937,-2.8125zM314.88995,129.58965c-0.39583,0.77083 -1.10417,1.31771 -2.125,1.64063c-1.01042,0.3125 -2.35417,0.46875 -4.03125,0.46875c-1.67708,0 -3.02604,-0.15625 -4.04687,-0.46875c-1.01042,-0.32292 -1.71875,-0.88542 -2.125,-1.6875c-0.39585,-0.80208 -0.63545,-1.51042 -0.71878,-2.125c-0.07292,-0.61458 -0.10937,-1.53125 -0.10937,-2.75c0,-1.22917 0.03646,-2.15104 0.10938,-2.76562c0.08333,-0.61458 0.31251,-1.29687 0.68753,-2.04687c0.75,-1.4375 2.82813,-2.15625 6.23438,-2.15625c3.36458,0 5.39063,0.71875 6.07813,2.15625c0.42708,0.80208 0.68229,1.51042 0.76563,2.125c0.08333,0.61458 0.125,1.53646 0.125,2.76563c0,1.22917 -0.04167,2.15104 -0.125,2.76563c-0.08333,0.60417 -0.32292,1.29688 -0.71875,2.07813zM335.33679,158.46465c0,2.26042 0.74479,4.02083 2.23438,5.28125c1.48958,1.25 3.07292,1.875 4.75,1.875c1.6875,0 3.26042,-0.48958 4.71875,-1.46875c1.46875,-0.98958 2.66146,-1.48437 3.57813,-1.48437c1.59375,0 3.53646,1.41146 5.82813,4.23438c1.22917,1.55208 1.84375,2.9375 1.84375,4.15625c0,2.03125 -1.46875,3.92708 -4.40625,5.6875c-3.03125,2.13542 -6.76042,3.20313 -11.1875,3.20313c-4.96875,0 -9.74479,-1.78646 -14.32812,-5.35937c-2.1875,-1.70833 -3.97396,-3.98958 -5.35937,-6.84375c-1.38542,-2.85417 -2.07812,-6 -2.07812,-9.4375c0,-3.44792 0.69271,-6.56771 2.07813,-9.35937c1.38542,-2.80208 3.17188,-5.05729 5.35938,-6.76562c4.42708,-3.52083 9.14583,-5.28125 14.15625,-5.28125c2.03125,0 4.00521,0.28125 5.92188,0.84375c1.92708,0.5625 3.34375,1.10938 4.25,1.64063l1.28125,0.79688c0.95833,0.63542 1.70313,1.14063 2.23438,1.51563c1.38542,1.07292 2.07813,2.29167 2.07813,3.65625c0,1.35417 -0.55729,2.88542 -1.67187,4.59375c-1.92708,2.92708 -3.77083,4.39063 -5.53125,4.39063c-1.01042,0 -2.44792,-0.58333 -4.3125,-1.75c-0.95833,-0.90625 -2.33333,-1.35937 -4.125,-1.35937c-1.78125,0 -3.44792,0.64063 -5,1.92188c-1.54167,1.27083 -2.3125,3.04167 -2.3125,5.3125zM388.29047,158.41778l10.64063,8.8125c1.33333,1.11458 2.17188,1.96875 2.51563,2.5625c0.35417,0.58333 0.53125,1.14063 0.53125,1.67188c0,1.28125 -0.82812,3.01563 -2.48437,5.20313c-1.8125,2.23958 -3.41146,3.35938 -4.79687,3.35938c-1.17708,0 -2.80729,-0.77604 -4.89062,-2.32812l-0.79687,-0.5625c-1.22917,-1.01042 -3.125,-2.78125 -5.6875,-5.3125c-2.55208,-2.53125 -4.49479,-4.33333 -5.82812,-5.40625v6.17188c0,1.21875 -0.04167,2.13542 -0.125,2.75c-0.08333,0.61458 -0.33854,1.32292 -0.76562,2.125c-0.6875,1.38542 -2.73958,2.07813 -6.15625,2.07813c-3.35417,0 -5.40625,-0.71875 -6.15625,-2.15625c-0.375,-0.80208 -0.60417,-1.51042 -0.6875,-2.125c-0.07292,-0.61458 -0.10937,-1.53646 -0.10937,-2.76562v-47.90625c0,-1.22917 0.03646,-2.15104 0.10938,-2.76562c0.08333,-0.61458 0.3125,-1.32292 0.6875,-2.125c0.75,-1.4375 2.82813,-2.15625 6.23438,-2.15625c2.5625,0 4.38021,0.45313 5.45313,1.35938c0.90625,0.75 1.38542,1.92188 1.4375,3.51563c0.05208,0.47917 0.07813,1.22917 0.07813,2.25v25.35938c0.95833,-0.80208 2.41146,-2.16146 4.35938,-4.07812c1.94792,-1.92708 3.40104,-3.29167 4.35938,-4.09375l0.95313,-0.625c1.875,-1.44792 3.47917,-2.17187 4.8125,-2.17187c1.33333,0 2.86458,1.08333 4.59375,3.25c1.72917,2.15625 2.59375,3.84896 2.59375,5.07813c0,1.22917 -0.98437,2.66667 -2.95312,4.3125zM444.6142,153.41778c0,3.28125 -0.81771,5.70833 -2.45312,7.28125c-1.625,1.57292 -3.42187,2.35938 -5.39062,2.35938h-18.95312c0,1.5 0.875,2.75521 2.625,3.76563c1.76042,1.01042 3.52083,1.51563 5.28125,1.51563c3.09375,0 5.52083,-0.31771 7.28125,-0.95312l0.89063,-0.32812c1.28125,-0.58333 2.34375,-0.875 3.1875,-0.875c1.70833,0 3.17708,1.19792 4.40625,3.59375c0.69792,1.44792 1.04688,2.67708 1.04688,3.6875c0,4.75 -5.68229,7.125 -17.04687,7.125c-3.94792,0 -7.45833,-0.68229 -10.53125,-2.04687c-3.0625,-1.36458 -5.44271,-3.16667 -7.14062,-5.40625c-3.36458,-4.3125 -5.04687,-9.13542 -5.04687,-14.46875c0,-6.71875 2.17188,-12.09375 6.51563,-16.125c4.35417,-4.03125 9.78125,-6.04687 16.28125,-6.04687c7.41667,0 12.85938,2.61458 16.32813,7.84375c1.8125,2.77083 2.71875,5.79688 2.71875,9.07813zM427.72357,155.77715c2.03125,0 3.04688,-0.84896 3.04688,-2.54687c0,-1.22917 -0.46875,-2.21875 -1.40625,-2.96875c-0.92708,-0.75 -2.26042,-1.125 -4,-1.125c-1.72917,0 -3.44792,0.70833 -5.15625,2.125c-1.70833,1.41667 -2.5625,2.92188 -2.5625,4.51563zM478.43854,137.8709c1.02083,0.3125 1.86458,0.85938 2.53125,1.64063c0.66667,0.77083 1,2.01042 1,3.71875c0,1.69792 -0.51042,3.5625 -1.53125,5.59375c-1.01042,2.02083 -2.47396,3.03125 -4.39062,3.03125c-0.95833,0 -1.88021,-0.20833 -2.76562,-0.625c-0.875,-0.42708 -2.03125,-0.64062 -3.46875,-0.64062c-1.4375,0 -2.78646,0.50521 -4.04687,1.51563c-1.25,1.01042 -1.875,2.23438 -1.875,3.67188v16.8125c0,1.21875 -0.04167,2.13542 -0.125,2.75c-0.07292,0.61458 -0.32292,1.32292 -0.75,2.125c-0.80208,1.38542 -2.88542,2.07813 -6.25,2.07813c-2.5625,0 -4.40104,-0.45312 -5.51562,-1.35937c-0.85417,-0.75 -1.33333,-1.89583 -1.4375,-3.4375c0,-0.53125 0,-1.30729 0,-2.32812v-28.07812c0,-1.22917 0.03646,-2.14583 0.10938,-2.75c0.08333,-0.61458 0.3125,-1.29687 0.6875,-2.04687c0.75,-1.4375 2.82813,-2.15625 6.23438,-2.15625c3.20833,0 5.20833,0.61458 6,1.84375c0.59375,0.84375 0.89063,1.71875 0.89063,2.625c0.26042,-0.36458 0.64583,-0.8125 1.15625,-1.34375c0.51042,-0.54167 1.58854,-1.26562 3.23438,-2.17187c1.65625,-0.90625 3.10938,-1.35937 4.35938,-1.35937c1.26042,0 2.3125,0.06771 3.15625,0.20313c0.85417,0.13542 1.78646,0.36458 2.79688,0.6875z" fill="#ffffff" fill-rule="nonzero" stroke="#000000" stroke-width="5" stroke-linecap="square"/><path d="M-16.27095,169.6209c0.80208,1.91667 1.20313,3.30208 1.20313,4.15625c0,2.03125 -1.65625,3.73958 -4.96875,5.125c-1.69792,0.75 -3.06771,1.125 -4.10937,1.125c-1.04167,0 -1.89583,-0.25521 -2.5625,-0.76562c-0.66667,-0.51042 -1.16146,-1.03125 -1.48437,-1.5625c-0.53125,-1.01042 -2.60937,-5.83333 -6.23437,-14.46875l-2.48437,0.15625h-10.07812v9.03125c0,1.22917 -0.04167,2.15104 -0.125,2.76563c-0.07292,0.61458 -0.32292,1.32292 -0.75,2.125c-0.75,1.4375 -2.83333,2.15625 -6.25,2.15625c-3.72917,0 -5.91146,-0.98958 -6.54687,-2.96875c-0.32292,-0.90625 -0.48437,-2.29167 -0.48437,-4.15625v-44.39062c0,-1.22917 0.03646,-2.15104 0.10938,-2.76562c0.08333,-0.61458 0.33854,-1.32292 0.76563,-2.125c0.75,-1.4375 2.82813,-2.15625 6.23438,-2.15625h17.28125c4.69792,0 9.26042,1.70833 13.6875,5.125c2.13542,1.64583 3.89583,3.88542 5.28125,6.71875c1.38542,2.82292 2.07813,5.96875 2.07813,9.4375c0,6.03125 -2,10.98958 -6,14.875c1.17708,2.83333 2.98958,7.02083 5.4375,12.5625zM-46.9897,149.23028h10.23438c1.55208,0 3.09896,-0.58854 4.64063,-1.76562c1.55208,-1.17708 2.32813,-2.9375 2.32813,-5.28125c0,-2.34375 -0.77604,-4.11458 -2.32812,-5.3125c-1.54167,-1.20833 -3.14062,-1.8125 -4.79687,-1.8125h-10.07812zM-13.46913,158.4959c0,-6.39583 2.23958,-11.67187 6.71875,-15.82812c4.47917,-4.16667 9.59896,-6.25 15.35938,-6.25c5.76042,0 10.85417,2.06771 15.28125,6.20313c4.42708,4.13542 6.64063,9.40104 6.64063,15.79688c0,4.42708 -1.14583,8.36458 -3.4375,11.8125c-2.29167,3.4375 -5.07812,5.96875 -8.35937,7.59375c-3.28125,1.625 -6.68229,2.4375 -10.20312,2.4375c-3.52083,0 -6.9375,-0.86458 -10.25,-2.59375c-3.30208,-1.73958 -6.08854,-4.30208 -8.35937,-7.6875c-2.26042,-3.38542 -3.39062,-7.21354 -3.39062,-11.48437zM3.24962,164.23028c1.70833,1.30208 3.44271,1.95313 5.20313,1.95313c1.76042,0 3.52083,-0.66667 5.28125,-2c1.76042,-1.33333 2.64063,-3.30729 2.64063,-5.92187c0,-2.61458 -0.82812,-4.5625 -2.48437,-5.84375c-1.65625,-1.28125 -3.44271,-1.92187 -5.35937,-1.92187c-1.91667,0 -3.70312,0.66667 -5.35937,2c-1.65625,1.33333 -2.48437,3.29688 -2.48437,5.89063c0,2.58333 0.85417,4.53125 2.5625,5.84375zM58.84332,137.46465c4.75,0 9.10938,2.10938 13.07813,6.32813c3.97917,4.20833 5.96875,9.09896 5.96875,14.67188c0,5.57292 -1.97396,10.45313 -5.92187,14.64063c-3.94792,4.1875 -8.1875,6.28125 -12.71875,6.28125c-4.53125,0 -7.75521,-1.28125 -9.67187,-3.84375c-0.42708,2.61458 -2.72396,3.92188 -6.89062,3.92188c-3.35417,0 -5.40625,-0.71875 -6.15625,-2.15625c-0.375,-0.80208 -0.60417,-1.51042 -0.6875,-2.125c-0.07292,-0.61458 -0.10937,-1.53646 -0.10937,-2.76562v-47.75c0,-1.22917 0.03646,-2.15104 0.10938,-2.76562c0.08333,-0.61458 0.3125,-1.29687 0.6875,-2.04687c0.75,-1.4375 2.82813,-2.15625 6.23438,-2.15625c3.36458,0 5.39063,0.71875 6.07813,2.15625c0.42708,0.80208 0.68229,1.51042 0.76563,2.125c0.08333,0.61458 0.125,1.53646 0.125,2.76563v16.64063c2.13542,-2.61458 5.17188,-3.92187 9.10938,-3.92187zM51.84332,163.3084c1.3125,1.4375 2.95313,2.15625 4.92188,2.15625c1.97917,0 3.66146,-0.71875 5.04688,-2.15625c1.38542,-1.44792 2.07813,-3.05208 2.07813,-4.8125c0,-1.76042 -0.64062,-3.36979 -1.92187,-4.82812c-1.28125,-1.46875 -2.98958,-2.20312 -5.125,-2.20312c-2.125,0 -3.81771,0.75 -5.07812,2.25c-1.25,1.48958 -1.875,3.09896 -1.875,4.82813c0,1.72917 0.65104,3.31771 1.95313,4.76563zM83.0939,124.58965c0,-1.22917 0.03646,-2.15104 0.10938,-2.76562c0.08333,-0.61458 0.3125,-1.32292 0.6875,-2.125c0.75,-1.4375 2.82813,-2.15625 6.23438,-2.15625c3.26042,0 5.28646,0.71875 6.07813,2.15625c0.42708,0.80208 0.68229,1.52604 0.76563,2.17188c0.08333,0.63542 0.125,1.56771 0.125,2.79688v37.03125c0,1.92708 0.15625,3.14583 0.46875,3.65625c0.32292,0.5 1.03125,0.75 2.125,0.75c1.09375,0 1.82813,0.04167 2.20313,0.125c0.375,0.07292 0.82813,0.29688 1.35938,0.67188c1.0625,0.69792 1.59375,2.59375 1.59375,5.6875c0,3.35417 -0.53125,5.40625 -1.59375,6.15625c-1.38542,0.95833 -4.69271,1.11979 -9.92187,0.48438c-4.10417,-0.54167 -6.77083,-1.90625 -8,-4.09375c-1.48958,-2.60417 -2.23437,-6.76042 -2.23437,-12.46875zM108.05075,158.4959c0,-6.39583 2.23958,-11.67187 6.71875,-15.82812c4.47917,-4.16667 9.59896,-6.25 15.35938,-6.25c5.76042,0 10.85417,2.06771 15.28125,6.20313c4.42708,4.13542 6.64063,9.40104 6.64063,15.79688c0,4.42708 -1.14583,8.36458 -3.4375,11.8125c-2.29167,3.4375 -5.07812,5.96875 -8.35937,7.59375c-3.28125,1.625 -6.68229,2.4375 -10.20312,2.4375c-3.52083,0 -6.9375,-0.86458 -10.25,-2.59375c-3.30208,-1.73958 -6.08854,-4.30208 -8.35937,-7.6875c-2.26042,-3.38542 -3.39062,-7.21354 -3.39062,-11.48437zM124.7695,164.23028c1.70833,1.30208 3.44271,1.95313 5.20313,1.95313c1.76042,0 3.52083,-0.66667 5.28125,-2c1.76042,-1.33333 2.64063,-3.30729 2.64063,-5.92187c0,-2.61458 -0.82812,-4.5625 -2.48437,-5.84375c-1.65625,-1.28125 -3.44271,-1.92187 -5.35937,-1.92187c-1.91667,0 -3.70312,0.66667 -5.35937,2c-1.65625,1.33333 -2.48437,3.29688 -2.48437,5.89063c0,2.58333 0.85417,4.53125 2.5625,5.84375zM184.85693,158.41778l8.875,8.96875c1.91667,1.91667 2.875,3.55729 2.875,4.92188c0,1.35417 -0.95833,2.97917 -2.875,4.875c-1.91667,1.89583 -3.54167,2.84375 -4.875,2.84375c-1.33333,0 -2.96354,-0.96354 -4.89062,-2.89062l-8.79687,-8.875l-8.875,8.875c-1.92708,1.92708 -3.54167,2.89063 -4.84375,2.89063c-1.30208,0 -2.92708,-0.94792 -4.875,-2.84375c-1.94792,-1.89583 -2.92187,-3.52083 -2.92187,-4.875c0,-1.36458 0.95833,-3.00521 2.875,-4.92187l8.875,-8.96875l-8.875,-8.95312c-1.91667,-1.91667 -2.875,-3.55729 -2.875,-4.92187c0,-1.36458 0.97396,-3.00521 2.92188,-4.92187c1.94792,-1.91667 3.57292,-2.875 4.875,-2.875c1.30208,0 2.91667,0.95833 4.84375,2.875l8.875,8.96875l8.79688,-8.96875c1.92708,-1.91667 3.55729,-2.875 4.89063,-2.875c1.33333,0 2.95833,0.95833 4.875,2.875c1.91667,1.91667 2.875,3.55729 2.875,4.92188c0,1.36458 -0.95833,3.00521 -2.875,4.92188zM257.89438,164.1834l1.4375,-1.04687c1.8125,-1.0625 3.09375,-1.59375 3.84375,-1.59375c1.64583,0 3.43229,1.49479 5.35938,4.48438c1.16667,1.86458 1.75,3.35938 1.75,4.48438c0,1.11458 -0.35937,2.04688 -1.07812,2.79688c-0.71875,0.73958 -1.55729,1.40625 -2.51562,2c-0.95833,0.58333 -1.88021,1.14063 -2.76562,1.67188c-0.875,0.53125 -2.67187,1.22396 -5.39062,2.07813c-2.71875,0.85417 -5.34896,1.28125 -7.89062,1.28125c-2.53125,0 -5.08854,-0.33333 -7.67187,-1c-2.58333,-0.66667 -5.25,-1.78646 -8,-3.35937c-2.75,-1.57292 -5.21875,-3.48958 -7.40625,-5.75c-2.1875,-2.27083 -3.98958,-5.17708 -5.40625,-8.71875c-1.40625,-3.55208 -2.10937,-7.40625 -2.10937,-11.5625c0,-4.16667 0.69271,-7.94271 2.07813,-11.32812c1.38542,-3.38542 3.15625,-6.18229 5.3125,-8.39062c2.16667,-2.21875 4.63542,-4.07292 7.40625,-5.5625c5.22917,-2.88542 10.48438,-4.32812 15.76563,-4.32812c2.5,0 5.04167,0.39063 7.625,1.17188c2.59375,0.77083 4.55729,1.55208 5.89063,2.34375l1.92188,1.125c0.95833,0.58333 1.70313,1.0625 2.23438,1.4375c1.38542,1.125 2.07813,2.39583 2.07813,3.8125c0,1.40625 -0.55729,2.88542 -1.67187,4.4375c-2.08333,2.875 -3.94792,4.3125 -5.59375,4.3125c-0.96875,0 -2.33333,-0.58333 -4.09375,-1.75c-2.23958,-1.82292 -5.22396,-2.73437 -8.95312,-2.73437c-3.46875,0 -6.88021,1.20313 -10.23437,3.60938c-1.60417,1.16667 -2.94271,2.81771 -4.01562,4.95313c-1.0625,2.13542 -1.59375,4.55208 -1.59375,7.25c0,2.6875 0.53125,5.09896 1.59375,7.23438c1.07292,2.13542 2.4375,3.81771 4.09375,5.04688c3.25,2.34375 6.63542,3.51563 10.15625,3.51563c1.65625,0 3.21354,-0.21354 4.67188,-0.64062c1.46875,-0.42708 2.52604,-0.85417 3.17188,-1.28125zM275.5737,124.58965c0,-1.22917 0.03646,-2.15104 0.10938,-2.76562c0.08333,-0.61458 0.3125,-1.32292 0.6875,-2.125c0.75,-1.4375 2.82813,-2.15625 6.23438,-2.15625c3.26042,0 5.28646,0.71875 6.07813,2.15625c0.42708,0.80208 0.68229,1.52604 0.76563,2.17188c0.08333,0.63542 0.125,1.56771 0.125,2.79688v37.03125c0,1.92708 0.15625,3.14583 0.46875,3.65625c0.32292,0.5 1.03125,0.75 2.125,0.75c1.09375,0 1.82813,0.04167 2.20313,0.125c0.375,0.07292 0.82813,0.29688 1.35938,0.67188c1.0625,0.69792 1.59375,2.59375 1.59375,5.6875c0,3.35417 -0.53125,5.40625 -1.59375,6.15625c-1.38542,0.95833 -4.69271,1.11979 -9.92187,0.48438c-4.10417,-0.54167 -6.77083,-1.90625 -8,-4.09375c-1.48958,-2.60417 -2.23437,-6.76042 -2.23437,-12.46875zM301.73367,144.41778c0,-1.21875 0.03646,-2.13542 0.10938,-2.75c0.08333,-0.61458 0.31251,-1.32292 0.68753,-2.125c0.75,-1.38542 2.82813,-2.07812 6.23438,-2.07812c2.5625,0 4.38021,0.45313 5.45313,1.35938c0.90625,0.75 1.38542,1.89583 1.4375,3.4375c0.05208,0.53125 0.07813,1.30729 0.07813,2.32813v28c0,1.21875 -0.04167,2.13542 -0.125,2.75c-0.08333,0.61458 -0.33854,1.32292 -0.76562,2.125c-0.6875,1.38542 -2.73958,2.07813 -6.15625,2.07813c-3.35417,0 -5.40625,-0.71875 -6.15625,-2.15625c-0.37502,-0.80208 -0.6042,-1.49479 -0.68753,-2.07812c-0.07292,-0.59375 -0.10937,-1.53125 -0.10937,-2.8125zM314.88995,129.58965c-0.39583,0.77083 -1.10417,1.31771 -2.125,1.64063c-1.01042,0.3125 -2.35417,0.46875 -4.03125,0.46875c-1.67708,0 -3.02604,-0.15625 -4.04687,-0.46875c-1.01042,-0.32292 -1.71875,-0.88542 -2.125,-1.6875c-0.39585,-0.80208 -0.63545,-1.51042 -0.71878,-2.125c-0.07292,-0.61458 -0.10937,-1.53125 -0.10937,-2.75c0,-1.22917 0.03646,-2.15104 0.10938,-2.76562c0.08333,-0.61458 0.31251,-1.29687 0.68753,-2.04687c0.75,-1.4375 2.82813,-2.15625 6.23438,-2.15625c3.36458,0 5.39063,0.71875 6.07813,2.15625c0.42708,0.80208 0.68229,1.51042 0.76563,2.125c0.08333,0.61458 0.125,1.53646 0.125,2.76563c0,1.22917 -0.04167,2.15104 -0.125,2.76563c-0.08333,0.60417 -0.32292,1.29688 -0.71875,2.07813zM335.33679,158.46465c0,2.26042 0.74479,4.02083 2.23438,5.28125c1.48958,1.25 3.07292,1.875 4.75,1.875c1.6875,0 3.26042,-0.48958 4.71875,-1.46875c1.46875,-0.98958 2.66146,-1.48437 3.57813,-1.48437c1.59375,0 3.53646,1.41146 5.82813,4.23438c1.22917,1.55208 1.84375,2.9375 1.84375,4.15625c0,2.03125 -1.46875,3.92708 -4.40625,5.6875c-3.03125,2.13542 -6.76042,3.20313 -11.1875,3.20313c-4.96875,0 -9.74479,-1.78646 -14.32812,-5.35937c-2.1875,-1.70833 -3.97396,-3.98958 -5.35937,-6.84375c-1.38542,-2.85417 -2.07812,-6 -2.07812,-9.4375c0,-3.44792 0.69271,-6.56771 2.07813,-9.35937c1.38542,-2.80208 3.17188,-5.05729 5.35938,-6.76562c4.42708,-3.52083 9.14583,-5.28125 14.15625,-5.28125c2.03125,0 4.00521,0.28125 5.92188,0.84375c1.92708,0.5625 3.34375,1.10938 4.25,1.64063l1.28125,0.79688c0.95833,0.63542 1.70313,1.14063 2.23438,1.51563c1.38542,1.07292 2.07813,2.29167 2.07813,3.65625c0,1.35417 -0.55729,2.88542 -1.67187,4.59375c-1.92708,2.92708 -3.77083,4.39063 -5.53125,4.39063c-1.01042,0 -2.44792,-0.58333 -4.3125,-1.75c-0.95833,-0.90625 -2.33333,-1.35937 -4.125,-1.35937c-1.78125,0 -3.44792,0.64063 -5,1.92188c-1.54167,1.27083 -2.3125,3.04167 -2.3125,5.3125zM388.29047,158.41778l10.64063,8.8125c1.33333,1.11458 2.17188,1.96875 2.51563,2.5625c0.35417,0.58333 0.53125,1.14063 0.53125,1.67188c0,1.28125 -0.82812,3.01563 -2.48437,5.20313c-1.8125,2.23958 -3.41146,3.35938 -4.79687,3.35938c-1.17708,0 -2.80729,-0.77604 -4.89062,-2.32812l-0.79687,-0.5625c-1.22917,-1.01042 -3.125,-2.78125 -5.6875,-5.3125c-2.55208,-2.53125 -4.49479,-4.33333 -5.82812,-5.40625v6.17188c0,1.21875 -0.04167,2.13542 -0.125,2.75c-0.08333,0.61458 -0.33854,1.32292 -0.76562,2.125c-0.6875,1.38542 -2.73958,2.07813 -6.15625,2.07813c-3.35417,0 -5.40625,-0.71875 -6.15625,-2.15625c-0.375,-0.80208 -0.60417,-1.51042 -0.6875,-2.125c-0.07292,-0.61458 -0.10937,-1.53646 -0.10937,-2.76562v-47.90625c0,-1.22917 0.03646,-2.15104 0.10938,-2.76562c0.08333,-0.61458 0.3125,-1.32292 0.6875,-2.125c0.75,-1.4375 2.82813,-2.15625 6.23438,-2.15625c2.5625,0 4.38021,0.45313 5.45313,1.35938c0.90625,0.75 1.38542,1.92188 1.4375,3.51563c0.05208,0.47917 0.07813,1.22917 0.07813,2.25v25.35938c0.95833,-0.80208 2.41146,-2.16146 4.35938,-4.07812c1.94792,-1.92708 3.40104,-3.29167 4.35938,-4.09375l0.95313,-0.625c1.875,-1.44792 3.47917,-2.17187 4.8125,-2.17187c1.33333,0 2.86458,1.08333 4.59375,3.25c1.72917,2.15625 2.59375,3.84896 2.59375,5.07813c0,1.22917 -0.98437,2.66667 -2.95312,4.3125zM444.6142,153.41778c0,3.28125 -0.81771,5.70833 -2.45312,7.28125c-1.625,1.57292 -3.42187,2.35938 -5.39062,2.35938h-18.95312c0,1.5 0.875,2.75521 2.625,3.76563c1.76042,1.01042 3.52083,1.51563 5.28125,1.51563c3.09375,0 5.52083,-0.31771 7.28125,-0.95312l0.89063,-0.32812c1.28125,-0.58333 2.34375,-0.875 3.1875,-0.875c1.70833,0 3.17708,1.19792 4.40625,3.59375c0.69792,1.44792 1.04688,2.67708 1.04688,3.6875c0,4.75 -5.68229,7.125 -17.04687,7.125c-3.94792,0 -7.45833,-0.68229 -10.53125,-2.04687c-3.0625,-1.36458 -5.44271,-3.16667 -7.14062,-5.40625c-3.36458,-4.3125 -5.04687,-9.13542 -5.04687,-14.46875c0,-6.71875 2.17188,-12.09375 6.51563,-16.125c4.35417,-4.03125 9.78125,-6.04687 16.28125,-6.04687c7.41667,0 12.85938,2.61458 16.32813,7.84375c1.8125,2.77083 2.71875,5.79688 2.71875,9.07813zM427.72357,155.77715c2.03125,0 3.04688,-0.84896 3.04688,-2.54687c0,-1.22917 -0.46875,-2.21875 -1.40625,-2.96875c-0.92708,-0.75 -2.26042,-1.125 -4,-1.125c-1.72917,0 -3.44792,0.70833 -5.15625,2.125c-1.70833,1.41667 -2.5625,2.92188 -2.5625,4.51563zM478.43854,137.8709c1.02083,0.3125 1.86458,0.85938 2.53125,1.64063c0.66667,0.77083 1,2.01042 1,3.71875c0,1.69792 -0.51042,3.5625 -1.53125,5.59375c-1.01042,2.02083 -2.47396,3.03125 -4.39062,3.03125c-0.95833,0 -1.88021,-0.20833 -2.76562,-0.625c-0.875,-0.42708 -2.03125,-0.64062 -3.46875,-0.64062c-1.4375,0 -2.78646,0.50521 -4.04687,1.51563c-1.25,1.01042 -1.875,2.23438 -1.875,3.67188v16.8125c0,1.21875 -0.04167,2.13542 -0.125,2.75c-0.07292,0.61458 -0.32292,1.32292 -0.75,2.125c-0.80208,1.38542 -2.88542,2.07813 -6.25,2.07813c-2.5625,0 -4.40104,-0.45312 -5.51562,-1.35937c-0.85417,-0.75 -1.33333,-1.89583 -1.4375,-3.4375c0,-0.53125 0,-1.30729 0,-2.32812v-28.07812c0,-1.22917 0.03646,-2.14583 0.10938,-2.75c0.08333,-0.61458 0.3125,-1.29687 0.6875,-2.04687c0.75,-1.4375 2.82813,-2.15625 6.23438,-2.15625c3.20833,0 5.20833,0.61458 6,1.84375c0.59375,0.84375 0.89063,1.71875 0.89063,2.625c0.26042,-0.36458 0.64583,-0.8125 1.15625,-1.34375c0.51042,-0.54167 1.58854,-1.26562 3.23438,-2.17187c1.65625,-0.90625 3.10938,-1.35937 4.35938,-1.35937c1.26042,0 2.3125,0.06771 3.15625,0.20313c0.85417,0.13542 1.78646,0.36458 2.79688,0.6875z" fill="#ffffff" fill-rule="nonzero" stroke="#000000" stroke-width="7.5" stroke-linecap="square"/><path d="M-210,-152h960v720h-960z" fill-opacity="0" fill="#000000" fill-rule="evenodd" stroke="none" stroke-width="1" stroke-linecap="square"/><path d="M-16.27095,169.6209c0.80208,1.91667 1.20313,3.30208 1.20313,4.15625c0,2.03125 -1.65625,3.73958 -4.96875,5.125c-1.69792,0.75 -3.06771,1.125 -4.10937,1.125c-1.04167,0 -1.89583,-0.25521 -2.5625,-0.76562c-0.66667,-0.51042 -1.16146,-1.03125 -1.48437,-1.5625c-0.53125,-1.01042 -2.60937,-5.83333 -6.23437,-14.46875l-2.48437,0.15625h-10.07812v9.03125c0,1.22917 -0.04167,2.15104 -0.125,2.76563c-0.07292,0.61458 -0.32292,1.32292 -0.75,2.125c-0.75,1.4375 -2.83333,2.15625 -6.25,2.15625c-3.72917,0 -5.91146,-0.98958 -6.54687,-2.96875c-0.32292,-0.90625 -0.48437,-2.29167 -0.48437,-4.15625v-44.39062c0,-1.22917 0.03646,-2.15104 0.10938,-2.76562c0.08333,-0.61458 0.33854,-1.32292 0.76563,-2.125c0.75,-1.4375 2.82813,-2.15625 6.23438,-2.15625h17.28125c4.69792,0 9.26042,1.70833 13.6875,5.125c2.13542,1.64583 3.89583,3.88542 5.28125,6.71875c1.38542,2.82292 2.07813,5.96875 2.07813,9.4375c0,6.03125 -2,10.98958 -6,14.875c1.17708,2.83333 2.98958,7.02083 5.4375,12.5625zM-46.9897,149.23028h10.23438c1.55208,0 3.09896,-0.58854 4.64063,-1.76562c1.55208,-1.17708 2.32813,-2.9375 2.32813,-5.28125c0,-2.34375 -0.77604,-4.11458 -2.32812,-5.3125c-1.54167,-1.20833 -3.14062,-1.8125 -4.79687,-1.8125h-10.07812zM-13.46913,158.4959c0,-6.39583 2.23958,-11.67187 6.71875,-15.82812c4.47917,-4.16667 9.59896,-6.25 15.35938,-6.25c5.76042,0 10.85417,2.06771 15.28125,6.20313c4.42708,4.13542 6.64063,9.40104 6.64063,15.79688c0,4.42708 -1.14583,8.36458 -3.4375,11.8125c-2.29167,3.4375 -5.07812,5.96875 -8.35937,7.59375c-3.28125,1.625 -6.68229,2.4375 -10.20312,2.4375c-3.52083,0 -6.9375,-0.86458 -10.25,-2.59375c-3.30208,-1.73958 -6.08854,-4.30208 -8.35937,-7.6875c-2.26042,-3.38542 -3.39062,-7.21354 -3.39062,-11.48437zM3.24962,164.23028c1.70833,1.30208 3.44271,1.95313 5.20313,1.95313c1.76042,0 3.52083,-0.66667 5.28125,-2c1.76042,-1.33333 2.64063,-3.30729 2.64063,-5.92187c0,-2.61458 -0.82812,-4.5625 -2.48437,-5.84375c-1.65625,-1.28125 -3.44271,-1.92187 -5.35937,-1.92187c-1.91667,0 -3.70312,0.66667 -5.35937,2c-1.65625,1.33333 -2.48437,3.29688 -2.48437,5.89063c0,2.58333 0.85417,4.53125 2.5625,5.84375zM58.84332,137.46465c4.75,0 9.10938,2.10938 13.07813,6.32813c3.97917,4.20833 5.96875,9.09896 5.96875,14.67188c0,5.57292 -1.97396,10.45313 -5.92187,14.64063c-3.94792,4.1875 -8.1875,6.28125 -12.71875,6.28125c-4.53125,0 -7.75521,-1.28125 -9.67187,-3.84375c-0.42708,2.61458 -2.72396,3.92188 -6.89062,3.92188c-3.35417,0 -5.40625,-0.71875 -6.15625,-2.15625c-0.375,-0.80208 -0.60417,-1.51042 -0.6875,-2.125c-0.07292,-0.61458 -0.10937,-1.53646 -0.10937,-2.76562v-47.75c0,-1.22917 0.03646,-2.15104 0.10938,-2.76562c0.08333,-0.61458 0.3125,-1.29687 0.6875,-2.04687c0.75,-1.4375 2.82813,-2.15625 6.23438,-2.15625c3.36458,0 5.39063,0.71875 6.07813,2.15625c0.42708,0.80208 0.68229,1.51042 0.76563,2.125c0.08333,0.61458 0.125,1.53646 0.125,2.76563v16.64063c2.13542,-2.61458 5.17188,-3.92187 9.10938,-3.92187zM51.84332,163.3084c1.3125,1.4375 2.95313,2.15625 4.92188,2.15625c1.97917,0 3.66146,-0.71875 5.04688,-2.15625c1.38542,-1.44792 2.07813,-3.05208 2.07813,-4.8125c0,-1.76042 -0.64062,-3.36979 -1.92187,-4.82812c-1.28125,-1.46875 -2.98958,-2.20312 -5.125,-2.20312c-2.125,0 -3.81771,0.75 -5.07812,2.25c-1.25,1.48958 -1.875,3.09896 -1.875,4.82813c0,1.72917 0.65104,3.31771 1.95313,4.76563zM83.0939,124.58965c0,-1.22917 0.03646,-2.15104 0.10938,-2.76562c0.08333,-0.61458 0.3125,-1.32292 0.6875,-2.125c0.75,-1.4375 2.82813,-2.15625 6.23438,-2.15625c3.26042,0 5.28646,0.71875 6.07813,2.15625c0.42708,0.80208 0.68229,1.52604 0.76563,2.17188c0.08333,0.63542 0.125,1.56771 0.125,2.79688v37.03125c0,1.92708 0.15625,3.14583 0.46875,3.65625c0.32292,0.5 1.03125,0.75 2.125,0.75c1.09375,0 1.82813,0.04167 2.20313,0.125c0.375,0.07292 0.82813,0.29688 1.35938,0.67188c1.0625,0.69792 1.59375,2.59375 1.59375,5.6875c0,3.35417 -0.53125,5.40625 -1.59375,6.15625c-1.38542,0.95833 -4.69271,1.11979 -9.92187,0.48438c-4.10417,-0.54167 -6.77083,-1.90625 -8,-4.09375c-1.48958,-2.60417 -2.23437,-6.76042 -2.23437,-12.46875zM108.05075,158.4959c0,-6.39583 2.23958,-11.67187 6.71875,-15.82812c4.47917,-4.16667 9.59896,-6.25 15.35938,-6.25c5.76042,0 10.85417,2.06771 15.28125,6.20313c4.42708,4.13542 6.64063,9.40104 6.64063,15.79688c0,4.42708 -1.14583,8.36458 -3.4375,11.8125c-2.29167,3.4375 -5.07812,5.96875 -8.35937,7.59375c-3.28125,1.625 -6.68229,2.4375 -10.20312,2.4375c-3.52083,0 -6.9375,-0.86458 -10.25,-2.59375c-3.30208,-1.73958 -6.08854,-4.30208 -8.35937,-7.6875c-2.26042,-3.38542 -3.39062,-7.21354 -3.39062,-11.48437zM124.7695,164.23028c1.70833,1.30208 3.44271,1.95313 5.20313,1.95313c1.76042,0 3.52083,-0.66667 5.28125,-2c1.76042,-1.33333 2.64063,-3.30729 2.64063,-5.92187c0,-2.61458 -0.82812,-4.5625 -2.48437,-5.84375c-1.65625,-1.28125 -3.44271,-1.92187 -5.35937,-1.92187c-1.91667,0 -3.70312,0.66667 -5.35937,2c-1.65625,1.33333 -2.48437,3.29688 -2.48437,5.89063c0,2.58333 0.85417,4.53125 2.5625,5.84375zM184.85693,158.41778l8.875,8.96875c1.91667,1.91667 2.875,3.55729 2.875,4.92188c0,1.35417 -0.95833,2.97917 -2.875,4.875c-1.91667,1.89583 -3.54167,2.84375 -4.875,2.84375c-1.33333,0 -2.96354,-0.96354 -4.89062,-2.89062l-8.79687,-8.875l-8.875,8.875c-1.92708,1.92708 -3.54167,2.89063 -4.84375,2.89063c-1.30208,0 -2.92708,-0.94792 -4.875,-2.84375c-1.94792,-1.89583 -2.92187,-3.52083 -2.92187,-4.875c0,-1.36458 0.95833,-3.00521 2.875,-4.92187l8.875,-8.96875l-8.875,-8.95312c-1.91667,-1.91667 -2.875,-3.55729 -2.875,-4.92187c0,-1.36458 0.97396,-3.00521 2.92188,-4.92187c1.94792,-1.91667 3.57292,-2.875 4.875,-2.875c1.30208,0 2.91667,0.95833 4.84375,2.875l8.875,8.96875l8.79688,-8.96875c1.92708,-1.91667 3.55729,-2.875 4.89063,-2.875c1.33333,0 2.95833,0.95833 4.875,2.875c1.91667,1.91667 2.875,3.55729 2.875,4.92188c0,1.36458 -0.95833,3.00521 -2.875,4.92188zM257.89438,164.1834l1.4375,-1.04687c1.8125,-1.0625 3.09375,-1.59375 3.84375,-1.59375c1.64583,0 3.43229,1.49479 5.35938,4.48438c1.16667,1.86458 1.75,3.35938 1.75,4.48438c0,1.11458 -0.35937,2.04688 -1.07812,2.79688c-0.71875,0.73958 -1.55729,1.40625 -2.51562,2c-0.95833,0.58333 -1.88021,1.14063 -2.76562,1.67188c-0.875,0.53125 -2.67187,1.22396 -5.39062,2.07813c-2.71875,0.85417 -5.34896,1.28125 -7.89062,1.28125c-2.53125,0 -5.08854,-0.33333 -7.67187,-1c-2.58333,-0.66667 -5.25,-1.78646 -8,-3.35937c-2.75,-1.57292 -5.21875,-3.48958 -7.40625,-5.75c-2.1875,-2.27083 -3.98958,-5.17708 -5.40625,-8.71875c-1.40625,-3.55208 -2.10937,-7.40625 -2.10937,-11.5625c0,-4.16667 0.69271,-7.94271 2.07813,-11.32812c1.38542,-3.38542 3.15625,-6.18229 5.3125,-8.39062c2.16667,-2.21875 4.63542,-4.07292 7.40625,-5.5625c5.22917,-2.88542 10.48438,-4.32812 15.76563,-4.32812c2.5,0 5.04167,0.39063 7.625,1.17188c2.59375,0.77083 4.55729,1.55208 5.89063,2.34375l1.92188,1.125c0.95833,0.58333 1.70313,1.0625 2.23438,1.4375c1.38542,1.125 2.07813,2.39583 2.07813,3.8125c0,1.40625 -0.55729,2.88542 -1.67187,4.4375c-2.08333,2.875 -3.94792,4.3125 -5.59375,4.3125c-0.96875,0 -2.33333,-0.58333 -4.09375,-1.75c-2.23958,-1.82292 -5.22396,-2.73437 -8.95312,-2.73437c-3.46875,0 -6.88021,1.20313 -10.23437,3.60938c-1.60417,1.16667 -2.94271,2.81771 -4.01562,4.95313c-1.0625,2.13542 -1.59375,4.55208 -1.59375,7.25c0,2.6875 0.53125,5.09896 1.59375,7.23438c1.07292,2.13542 2.4375,3.81771 4.09375,5.04688c3.25,2.34375 6.63542,3.51563 10.15625,3.51563c1.65625,0 3.21354,-0.21354 4.67188,-0.64062c1.46875,-0.42708 2.52604,-0.85417 3.17188,-1.28125zM275.5737,124.58965c0,-1.22917 0.03646,-2.15104 0.10938,-2.76562c0.08333,-0.61458 0.3125,-1.32292 0.6875,-2.125c0.75,-1.4375 2.82813,-2.15625 6.23438,-2.15625c3.26042,0 5.28646,0.71875 6.07813,2.15625c0.42708,0.80208 0.68229,1.52604 0.76563,2.17188c0.08333,0.63542 0.125,1.56771 0.125,2.79688v37.03125c0,1.92708 0.15625,3.14583 0.46875,3.65625c0.32292,0.5 1.03125,0.75 2.125,0.75c1.09375,0 1.82813,0.04167 2.20313,0.125c0.375,0.07292 0.82813,0.29688 1.35938,0.67188c1.0625,0.69792 1.59375,2.59375 1.59375,5.6875c0,3.35417 -0.53125,5.40625 -1.59375,6.15625c-1.38542,0.95833 -4.69271,1.11979 -9.92187,0.48438c-4.10417,-0.54167 -6.77083,-1.90625 -8,-4.09375c-1.48958,-2.60417 -2.23437,-6.76042 -2.23437,-12.46875zM301.73367,144.41778c0,-1.21875 0.03646,-2.13542 0.10938,-2.75c0.08333,-0.61458 0.31251,-1.32292 0.68753,-2.125c0.75,-1.38542 2.82813,-2.07812 6.23438,-2.07812c2.5625,0 4.38021,0.45313 5.45313,1.35938c0.90625,0.75 1.38542,1.89583 1.4375,3.4375c0.05208,0.53125 0.07813,1.30729 0.07813,2.32813v28c0,1.21875 -0.04167,2.13542 -0.125,2.75c-0.08333,0.61458 -0.33854,1.32292 -0.76562,2.125c-0.6875,1.38542 -2.73958,2.07813 -6.15625,2.07813c-3.35417,0 -5.40625,-0.71875 -6.15625,-2.15625c-0.37502,-0.80208 -0.6042,-1.49479 -0.68753,-2.07812c-0.07292,-0.59375 -0.10937,-1.53125 -0.10937,-2.8125zM314.88995,129.58965c-0.39583,0.77083 -1.10417,1.31771 -2.125,1.64063c-1.01042,0.3125 -2.35417,0.46875 -4.03125,0.46875c-1.67708,0 -3.02604,-0.15625 -4.04687,-0.46875c-1.01042,-0.32292 -1.71875,-0.88542 -2.125,-1.6875c-0.39585,-0.80208 -0.63545,-1.51042 -0.71878,-2.125c-0.07292,-0.61458 -0.10937,-1.53125 -0.10937,-2.75c0,-1.22917 0.03646,-2.15104 0.10938,-2.76562c0.08333,-0.61458 0.31251,-1.29687 0.68753,-2.04687c0.75,-1.4375 2.82813,-2.15625 6.23438,-2.15625c3.36458,0 5.39063,0.71875 6.07813,2.15625c0.42708,0.80208 0.68229,1.51042 0.76563,2.125c0.08333,0.61458 0.125,1.53646 0.125,2.76563c0,1.22917 -0.04167,2.15104 -0.125,2.76563c-0.08333,0.60417 -0.32292,1.29688 -0.71875,2.07813zM335.33679,158.46465c0,2.26042 0.74479,4.02083 2.23438,5.28125c1.48958,1.25 3.07292,1.875 4.75,1.875c1.6875,0 3.26042,-0.48958 4.71875,-1.46875c1.46875,-0.98958 2.66146,-1.48437 3.57813,-1.48437c1.59375,0 3.53646,1.41146 5.82813,4.23438c1.22917,1.55208 1.84375,2.9375 1.84375,4.15625c0,2.03125 -1.46875,3.92708 -4.40625,5.6875c-3.03125,2.13542 -6.76042,3.20313 -11.1875,3.20313c-4.96875,0 -9.74479,-1.78646 -14.32812,-5.35937c-2.1875,-1.70833 -3.97396,-3.98958 -5.35937,-6.84375c-1.38542,-2.85417 -2.07812,-6 -2.07812,-9.4375c0,-3.44792 0.69271,-6.56771 2.07813,-9.35937c1.38542,-2.80208 3.17188,-5.05729 5.35938,-6.76562c4.42708,-3.52083 9.14583,-5.28125 14.15625,-5.28125c2.03125,0 4.00521,0.28125 5.92188,0.84375c1.92708,0.5625 3.34375,1.10938 4.25,1.64063l1.28125,0.79688c0.95833,0.63542 1.70313,1.14063 2.23438,1.51563c1.38542,1.07292 2.07813,2.29167 2.07813,3.65625c0,1.35417 -0.55729,2.88542 -1.67187,4.59375c-1.92708,2.92708 -3.77083,4.39063 -5.53125,4.39063c-1.01042,0 -2.44792,-0.58333 -4.3125,-1.75c-0.95833,-0.90625 -2.33333,-1.35937 -4.125,-1.35937c-1.78125,0 -3.44792,0.64063 -5,1.92188c-1.54167,1.27083 -2.3125,3.04167 -2.3125,5.3125zM388.29047,158.41778l10.64063,8.8125c1.33333,1.11458 2.17188,1.96875 2.51563,2.5625c0.35417,0.58333 0.53125,1.14063 0.53125,1.67188c0,1.28125 -0.82812,3.01563 -2.48437,5.20313c-1.8125,2.23958 -3.41146,3.35938 -4.79687,3.35938c-1.17708,0 -2.80729,-0.77604 -4.89062,-2.32812l-0.79687,-0.5625c-1.22917,-1.01042 -3.125,-2.78125 -5.6875,-5.3125c-2.55208,-2.53125 -4.49479,-4.33333 -5.82812,-5.40625v6.17188c0,1.21875 -0.04167,2.13542 -0.125,2.75c-0.08333,0.61458 -0.33854,1.32292 -0.76562,2.125c-0.6875,1.38542 -2.73958,2.07813 -6.15625,2.07813c-3.35417,0 -5.40625,-0.71875 -6.15625,-2.15625c-0.375,-0.80208 -0.60417,-1.51042 -0.6875,-2.125c-0.07292,-0.61458 -0.10937,-1.53646 -0.10937,-2.76562v-47.90625c0,-1.22917 0.03646,-2.15104 0.10938,-2.76562c0.08333,-0.61458 0.3125,-1.32292 0.6875,-2.125c0.75,-1.4375 2.82813,-2.15625 6.23438,-2.15625c2.5625,0 4.38021,0.45313 5.45313,1.35938c0.90625,0.75 1.38542,1.92188 1.4375,3.51563c0.05208,0.47917 0.07813,1.22917 0.07813,2.25v25.35938c0.95833,-0.80208 2.41146,-2.16146 4.35938,-4.07812c1.94792,-1.92708 3.40104,-3.29167 4.35938,-4.09375l0.95313,-0.625c1.875,-1.44792 3.47917,-2.17187 4.8125,-2.17187c1.33333,0 2.86458,1.08333 4.59375,3.25c1.72917,2.15625 2.59375,3.84896 2.59375,5.07813c0,1.22917 -0.98437,2.66667 -2.95312,4.3125zM444.6142,153.41778c0,3.28125 -0.81771,5.70833 -2.45312,7.28125c-1.625,1.57292 -3.42187,2.35938 -5.39062,2.35938h-18.95312c0,1.5 0.875,2.75521 2.625,3.76563c1.76042,1.01042 3.52083,1.51563 5.28125,1.51563c3.09375,0 5.52083,-0.31771 7.28125,-0.95312l0.89063,-0.32812c1.28125,-0.58333 2.34375,-0.875 3.1875,-0.875c1.70833,0 3.17708,1.19792 4.40625,3.59375c0.69792,1.44792 1.04688,2.67708 1.04688,3.6875c0,4.75 -5.68229,7.125 -17.04687,7.125c-3.94792,0 -7.45833,-0.68229 -10.53125,-2.04687c-3.0625,-1.36458 -5.44271,-3.16667 -7.14062,-5.40625c-3.36458,-4.3125 -5.04687,-9.13542 -5.04687,-14.46875c0,-6.71875 2.17188,-12.09375 6.51563,-16.125c4.35417,-4.03125 9.78125,-6.04687 16.28125,-6.04687c7.41667,0 12.85938,2.61458 16.32813,7.84375c1.8125,2.77083 2.71875,5.79688 2.71875,9.07813zM427.72357,155.77715c2.03125,0 3.04688,-0.84896 3.04688,-2.54687c0,-1.22917 -0.46875,-2.21875 -1.40625,-2.96875c-0.92708,-0.75 -2.26042,-1.125 -4,-1.125c-1.72917,0 -3.44792,0.70833 -5.15625,2.125c-1.70833,1.41667 -2.5625,2.92188 -2.5625,4.51563zM478.43854,137.8709c1.02083,0.3125 1.86458,0.85938 2.53125,1.64063c0.66667,0.77083 1,2.01042 1,3.71875c0,1.69792 -0.51042,3.5625 -1.53125,5.59375c-1.01042,2.02083 -2.47396,3.03125 -4.39062,3.03125c-0.95833,0 -1.88021,-0.20833 -2.76562,-0.625c-0.875,-0.42708 -2.03125,-0.64062 -3.46875,-0.64062c-1.4375,0 -2.78646,0.50521 -4.04687,1.51563c-1.25,1.01042 -1.875,2.23438 -1.875,3.67188v16.8125c0,1.21875 -0.04167,2.13542 -0.125,2.75c-0.07292,0.61458 -0.32292,1.32292 -0.75,2.125c-0.80208,1.38542 -2.88542,2.07813 -6.25,2.07813c-2.5625,0 -4.40104,-0.45312 -5.51562,-1.35937c-0.85417,-0.75 -1.33333,-1.89583 -1.4375,-3.4375c0,-0.53125 0,-1.30729 0,-2.32812v-28.07812c0,-1.22917 0.03646,-2.14583 0.10938,-2.75c0.08333,-0.61458 0.3125,-1.29687 0.6875,-2.04687c0.75,-1.4375 2.82813,-2.15625 6.23438,-2.15625c3.20833,0 5.20833,0.61458 6,1.84375c0.59375,0.84375 0.89063,1.71875 0.89063,2.625c0.26042,-0.36458 0.64583,-0.8125 1.15625,-1.34375c0.51042,-0.54167 1.58854,-1.26562 3.23438,-2.17187c1.65625,-0.90625 3.10938,-1.35937 4.35938,-1.35937c1.26042,0 2.3125,0.06771 3.15625,0.20313c0.85417,0.13542 1.78646,0.36458 2.79688,0.6875z" fill="#ffffff" fill-rule="nonzero" stroke="none" stroke-width="0" stroke-linecap="square"/></g></g></svg>