<svg version="1.1" xmlns="http://www.w3.org/2000/svg" xmlns:xlink="http://www.w3.org/1999/xlink" width="87.13629" height="89.44161" viewBox="0,0,87.13629,89.44161"><g transform="translate(-196.43189,-135.27919)"><g data-paper-data="{&quot;isPaintingLayer&quot;:true}" fill-rule="nonzero" stroke-linecap="butt" stroke-linejoin="miter" stroke-miterlimit="10" stroke-dasharray="" stroke-dashoffset="0" style="mix-blend-mode: normal"><g fill="none" stroke="#ffffff" stroke-width="2.5"><path d="M238.86331,154.27452c-1.88868,2.68896 -8.49206,1.3061 -14.74907,-3.0887c-6.25701,-4.3948 -9.79824,-10.13733 -7.90957,-12.82629c1.88868,-2.68896 8.49205,-1.3061 14.74907,3.0887c6.25701,4.3948 9.79825,10.13733 7.90957,12.82629z"/><path d="M248.1422,140.99055c6.25701,-4.39481 12.8604,-5.77765 14.74907,-3.0887c1.88867,2.68896 -1.65256,8.43149 -7.90957,12.82629c-6.25701,4.3948 -12.8604,5.77766 -14.74907,3.0887c-1.88868,-2.68896 1.65256,-8.43149 7.90957,-12.82629z" data-paper-data="{&quot;index&quot;:null}"/></g><path d="M205.69121,223.4708v-62.91924h68.61766v62.91924z" fill="#f9ff00" stroke="#000000" stroke-width="2.5"/><path d="M232.94121,223.4708v-62.91924h14.11766v62.91924z" fill="#ffffff" stroke="none" stroke-width="2.5"/><path d="M282.31818,151.59324v8.95831h-84.63629v-8.95831z" fill="#f9ff00" stroke="#000000" stroke-width="2.5"/><path d="M205.69121,223.4708v-62.91924h68.61766v62.91924z" fill="none" stroke="#000000" stroke-width="2.5"/><text transform="translate(228.6735,205.22332) scale(0.99008,0.99008)" font-size="40" xml:space="preserve" fill="#ffffff" fill-rule="nonzero" stroke="#000000" stroke-width="5" stroke-linecap="butt" stroke-linejoin="miter" stroke-miterlimit="10" stroke-dasharray="" stroke-dashoffset="0" font-family="Sans Serif" font-weight="normal" text-anchor="start" style="mix-blend-mode: normal"><tspan x="0" dy="0">9</tspan></text><text transform="translate(228.6735,205.22332) scale(0.99008,0.99008)" font-size="40" xml:space="preserve" fill="#ffffff" fill-rule="nonzero" stroke="none" stroke-width="1" stroke-linecap="butt" stroke-linejoin="miter" stroke-miterlimit="10" stroke-dasharray="" stroke-dashoffset="0" font-family="Sans Serif" font-weight="normal" text-anchor="start" style="mix-blend-mode: normal"><tspan x="0" dy="0">9</tspan></text></g></g></svg>