<svg version="1.1" xmlns="http://www.w3.org/2000/svg" xmlns:xlink="http://www.w3.org/1999/xlink" width="35.47223" height="17.77778" viewBox="0,0,35.47223,17.77778"><g transform="translate(-216.875,-121.99999)"><g data-paper-data="{&quot;isPaintingLayer&quot;:true}" fill-rule="nonzero" stroke-linecap="butt" stroke-linejoin="miter" stroke-miterlimit="10" stroke-dasharray="" stroke-dashoffset="0" style="mix-blend-mode: normal"><path d="M216.875,138.66666v-16.66667h8.83333v16.66667z" fill="#ffa566" stroke="none" stroke-width="0"/><path d="M221.0625,138.33333v-16h4.625v16z" fill="#ec9a5f" stroke="none" stroke-width="0"/><path d="M218.11574,134.83333v-7.33333h3.25926v7.33333z" fill="#ffa566" stroke="#794f31" stroke-width="0.5"/><path d="M223.28241,135v-7.33334h2.25926v7.33334z" fill="#ffa566" stroke="#794f31" stroke-width="0.5"/><path d="M231.20834,139.66666v-16.66667h8.83333v16.66667z" fill="#ff4949" stroke="none" stroke-width="0"/><path d="M235.39584,139.33333v-16h4.625v16z" fill="#e24242" stroke="none" stroke-width="0"/><path d="M232.44908,135.83333v-7.33333h3.25926v7.33333z" fill="#ff4949" stroke="#c43939" stroke-width="0.5"/><path d="M237.61575,136v-7.33334h2.25926v7.33334z" fill="#ff4949" stroke="#ba3636" stroke-width="0.5"/><path d="M243.43056,139.77777v-16.66667h8.83333v16.66667z" fill="#4a6aff" stroke="none" stroke-width="0"/><path d="M247.61806,139.44444v-16h4.625v16z" fill="#3c57d0" stroke="none" stroke-width="0"/><path d="M244.6713,135.94444v-7.33333h3.25926v7.33333z" fill="#4a6aff" stroke="#2e43a0" stroke-width="0.5"/><path d="M249.83797,136.11111v-7.33334h2.25926v7.33334z" fill="#4a6aff" stroke="#2e43a0" stroke-width="0.5"/></g></g></svg>