<svg version="1.1" xmlns="http://www.w3.org/2000/svg" xmlns:xlink="http://www.w3.org/1999/xlink" width="31.74216" height="31.74216" viewBox="0,0,31.74216,31.74216"><g transform="translate(-224.12892,-164.12892)"><g data-paper-data="{&quot;isPaintingLayer&quot;:true}" stroke-miterlimit="10" stroke-dasharray="" stroke-dashoffset="0" style="mix-blend-mode: normal"><path d="M224.12892,180c0,-8.76535 7.10572,-15.87108 15.87108,-15.87108c8.76535,0 15.87108,7.10572 15.87108,15.87108c0,8.76535 -7.10572,15.87108 -15.87108,15.87108c-8.76535,0 -15.87108,-7.10572 -15.87108,-15.87108z" fill="#000000" fill-rule="nonzero" stroke="none" stroke-width="0" stroke-linecap="butt" stroke-linejoin="miter"/><path d="M243.6796,181.72685c-1.36854,1.36854 -2.37694,2.07081 -3.16925,2.34092c-0.23409,-0.72028 -0.63024,-1.38655 -1.18846,-1.94477c-0.57623,-0.55822 -1.24249,-0.95437 -1.96278,-1.20647c0.28811,-0.79231 0.9904,-1.80071 2.34093,-3.15124c3.24128,-3.25929 9.00354,-7.23885 10.10197,-6.14042c1.09843,1.09843 -2.88113,6.8607 -6.1224,10.10198zM237.70446,187.72244c-0.53588,0.51776 -1.22734,0.78499 -1.91879,0.8184v0.0167h-0.17286c-4.63274,0.16702 -6.65525,-5.07739 -5.0649,-4.52623c2.09165,0.71818 2.94041,-0.31734 2.97325,-0.35074c1.15819,-1.10233 3.02512,-1.10233 4.1833,0c1.15819,1.11903 1.15819,2.93954 0,4.04187z" fill="#ffffff" fill-rule="evenodd" stroke="#ffffff" stroke-width="0.5" stroke-linecap="round" stroke-linejoin="round"/></g></g></svg>